<?xml version="1.0" encoding="UTF-8" standalone="no"?>
<!DOCTYPE svg PUBLIC "-//W3C//DTD SVG 1.1//EN"
 "http://www.w3.org/Graphics/SVG/1.1/DTD/svg11.dtd">
<!-- Generated by graphviz version 2.40.1 (20161225.0304)
 -->
<!-- Title: Icert Pages: 1 -->
<svg width="1846pt" height="1216pt"
 viewBox="0.00 0.00 1845.60 1215.60" xmlns="http://www.w3.org/2000/svg" xmlns:xlink="http://www.w3.org/1999/xlink">
<g id="graph0" class="graph" transform="scale(1 1) rotate(0) translate(28.8 1186.8)">
<title>Icert</title>
<polygon fill="#ffffff" stroke="transparent" points="-28.8,28.8 -28.8,-1186.8 1816.8,-1186.8 1816.8,28.8 -28.8,28.8"/>
<text text-anchor="middle" x="894" y="-1143.6" font-family="Arial BoldMT" font-size="13.00" fill="#000000">Icert</text>
<!-- m_Asset -->
<g id="node1" class="node">
<title>m_Asset</title>
<path fill="none" stroke="#000000" d="M120,-203.5C120,-203.5 384,-203.5 384,-203.5 390,-203.5 396,-209.5 396,-215.5 396,-215.5 396,-279.5 396,-279.5 396,-285.5 390,-291.5 384,-291.5 384,-291.5 120,-291.5 120,-291.5 114,-291.5 108,-285.5 108,-279.5 108,-279.5 108,-215.5 108,-215.5 108,-209.5 114,-203.5 120,-203.5"/>
<text text-anchor="start" x="164.2446" y="-243.7" font-family="Arial BoldMT" font-size="11.00" fill="#000000">Asset</text>
<polyline fill="none" stroke="#000000" points="252,-203.5 252,-291.5 "/>
<text text-anchor="start" x="259" y="-278.5" font-family="ArialMT" font-size="10.00" fill="#000000">user_id </text>
<text text-anchor="start" x="294.5762" y="-278.5" font-family="Arial ItalicMT" font-size="10.00" fill="#999999">integer (8)</text>
<text text-anchor="start" x="259" y="-265.5" font-family="ArialMT" font-size="10.00" fill="#000000">type </text>
<text text-anchor="start" x="280.6797" y="-265.5" font-family="Arial ItalicMT" font-size="10.00" fill="#999999">string</text>
<text text-anchor="start" x="259" y="-252.5" font-family="ArialMT" font-size="10.00" fill="#000000">assetable_type </text>
<text text-anchor="start" x="329.0488" y="-252.5" font-family="Arial ItalicMT" font-size="10.00" fill="#999999">string</text>
<text text-anchor="start" x="259" y="-239.5" font-family="ArialMT" font-size="10.00" fill="#000000">assetable_id </text>
<text text-anchor="start" x="317.9307" y="-239.5" font-family="Arial ItalicMT" font-size="10.00" fill="#999999">integer (8) FK</text>
<text text-anchor="start" x="259" y="-226.5" font-family="ArialMT" font-size="10.00" fill="#000000">file </text>
<text text-anchor="start" x="274.5615" y="-226.5" font-family="Arial ItalicMT" font-size="10.00" fill="#999999">string</text>
<text text-anchor="start" x="259" y="-213.5" font-family="ArialMT" font-size="10.00" fill="#000000">settings </text>
<text text-anchor="start" x="296.2412" y="-213.5" font-family="Arial ItalicMT" font-size="10.00" fill="#999999">text</text>
</g>
<!-- m_Photo -->
<g id="node10" class="node">
<title>m_Photo</title>
<path fill="none" stroke="#999999" d="M12,-46C12,-46 132,-46 132,-46 138,-46 144,-52 144,-58 144,-58 144,-70 144,-70 144,-76 138,-82 132,-82 132,-82 12,-82 12,-82 6,-82 0,-76 0,-70 0,-70 0,-58 0,-58 0,-52 6,-46 12,-46"/>
<text text-anchor="start" x="55.627" y="-60.2" font-family="Arial BoldMT" font-size="11.00" fill="#999999">Photo</text>
</g>
<!-- m_Asset&#45;&gt;m_Photo -->
<g id="edge1" class="edge">
<title>m_Asset&#45;&gt;m_Photo</title>
<path fill="none" stroke="#999999" d="M199.7126,-194.1959C162.5702,-156.3313 114.9662,-107.8017 89.6641,-82.0075"/>
<polygon fill="none" stroke="#999999" points="197.0255,-197.4543 208.427,-203.0798 203.0221,-191.572 197.0255,-197.4543"/>
</g>
<!-- m_Picture -->
<g id="node11" class="node">
<title>m_Picture</title>
<path fill="none" stroke="#999999" d="M192,-46C192,-46 312,-46 312,-46 318,-46 324,-52 324,-58 324,-58 324,-70 324,-70 324,-76 318,-82 312,-82 312,-82 192,-82 192,-82 186,-82 180,-76 180,-70 180,-70 180,-58 180,-58 180,-52 186,-46 192,-46"/>
<text text-anchor="start" x="232.8823" y="-60.2" font-family="Arial BoldMT" font-size="11.00" fill="#999999">Picture</text>
</g>
<!-- m_Asset&#45;&gt;m_Picture -->
<g id="edge2" class="edge">
<title>m_Asset&#45;&gt;m_Picture</title>
<path fill="none" stroke="#999999" d="M252,-190.8138C252,-153.4844 252,-107.0398 252,-82.0075"/>
<polygon fill="none" stroke="#999999" points="247.8001,-191.0797 252,-203.0798 256.2001,-191.0798 247.8001,-191.0797"/>
</g>
<!-- m_Cert -->
<g id="node2" class="node">
<title>m_Cert</title>
<path fill="none" stroke="#000000" d="M294.5,-367.5C294.5,-367.5 585.5,-367.5 585.5,-367.5 591.5,-367.5 597.5,-373.5 597.5,-379.5 597.5,-379.5 597.5,-482.5 597.5,-482.5 597.5,-488.5 591.5,-494.5 585.5,-494.5 585.5,-494.5 294.5,-494.5 294.5,-494.5 288.5,-494.5 282.5,-488.5 282.5,-482.5 282.5,-482.5 282.5,-379.5 282.5,-379.5 282.5,-373.5 288.5,-367.5 294.5,-367.5"/>
<text text-anchor="start" x="342.1096" y="-427.2" font-family="Arial BoldMT" font-size="11.00" fill="#000000">Cert</text>
<polyline fill="none" stroke="#000000" points="426.5,-367.5 426.5,-494.5 "/>
<text text-anchor="start" x="434" y="-481" font-family="ArialMT" font-size="10.00" fill="#000000">course_user_id </text>
<text text-anchor="start" x="505.1523" y="-481" font-family="Arial ItalicMT" font-size="10.00" fill="#999999">integer (8) ∗ FK</text>
<text text-anchor="start" x="433.9404" y="-468" font-family="ArialMT" font-size="10.00" fill="#000000">course_template_id </text>
<text text-anchor="start" x="523.9941" y="-468" font-family="Arial ItalicMT" font-size="10.00" fill="#999999">integer (8) ∗ FK</text>
<text text-anchor="start" x="434" y="-455" font-family="ArialMT" font-size="10.00" fill="#000000">title </text>
<text text-anchor="start" x="452.3398" y="-455" font-family="Arial ItalicMT" font-size="10.00" fill="#999999">string</text>
<text text-anchor="start" x="434" y="-442" font-family="ArialMT" font-size="10.00" fill="#000000">expired_date </text>
<text text-anchor="start" x="494.6006" y="-442" font-family="Arial ItalicMT" font-size="10.00" fill="#999999">datetime (0,0)</text>
<text text-anchor="start" x="434" y="-429" font-family="ArialMT" font-size="10.00" fill="#000000">aasm_state </text>
<text text-anchor="start" x="488.4727" y="-429" font-family="Arial ItalicMT" font-size="10.00" fill="#999999">string</text>
<text text-anchor="start" x="434" y="-416" font-family="ArialMT" font-size="10.00" fill="#000000">qrcode_token </text>
<text text-anchor="start" x="497.3789" y="-416" font-family="Arial ItalicMT" font-size="10.00" fill="#999999">string</text>
<text text-anchor="start" x="434" y="-403" font-family="ArialMT" font-size="10.00" fill="#000000">qrcode_token_at </text>
<text text-anchor="start" x="511.2803" y="-403" font-family="Arial ItalicMT" font-size="10.00" fill="#999999">datetime (0,0)</text>
<text text-anchor="start" x="434" y="-390" font-family="ArialMT" font-size="10.00" fill="#000000">blockchain_token </text>
<text text-anchor="start" x="514.0537" y="-390" font-family="Arial ItalicMT" font-size="10.00" fill="#999999">string</text>
<text text-anchor="start" x="434" y="-377" font-family="ArialMT" font-size="10.00" fill="#000000">settings </text>
<text text-anchor="start" x="471.2412" y="-377" font-family="Arial ItalicMT" font-size="10.00" fill="#999999">text</text>
</g>
<!-- m_Cert&#45;&gt;m_Asset -->
<g id="edge5" class="edge">
<title>m_Cert&#45;&gt;m_Asset</title>
<path fill="none" stroke="#000000" d="M371.1603,-363.8081C349.4227,-342.5907 325.7472,-319.482 305.2691,-299.4941"/>
<ellipse fill="none" stroke="#000000" cx="373.0568" cy="-365.6592" rx="2.4" ry="2.4"/>
<ellipse fill="#000000" stroke="#000000" cx="299.0127" cy="-293.3874" rx="2.4" ry="2.4"/>
<polygon fill="#000000" stroke="#000000" points="306.4907,-297.7519 300.7302,-295.0638 303.5571,-300.7575 306.4907,-297.7519"/>
</g>
<!-- m_Paper -->
<g id="node9" class="node">
<title>m_Paper</title>
<path fill="none" stroke="#000000" d="M496,-164.5C496,-164.5 760,-164.5 760,-164.5 766,-164.5 772,-170.5 772,-176.5 772,-176.5 772,-318.5 772,-318.5 772,-324.5 766,-330.5 760,-330.5 760,-330.5 496,-330.5 496,-330.5 490,-330.5 484,-324.5 484,-318.5 484,-318.5 484,-176.5 484,-176.5 484,-170.5 490,-164.5 496,-164.5"/>
<text text-anchor="start" x="539.3235" y="-243.7" font-family="Arial BoldMT" font-size="11.00" fill="#000000">Paper</text>
<polyline fill="none" stroke="#000000" points="628,-164.5 628,-330.5 "/>
<text text-anchor="start" x="635" y="-317.5" font-family="ArialMT" font-size="10.00" fill="#000000">user_id </text>
<text text-anchor="start" x="670.5762" y="-317.5" font-family="Arial ItalicMT" font-size="10.00" fill="#999999">integer (8)</text>
<text text-anchor="start" x="635" y="-304.5" font-family="ArialMT" font-size="10.00" fill="#000000">cert_id </text>
<text text-anchor="start" x="667.793" y="-304.5" font-family="Arial ItalicMT" font-size="10.00" fill="#999999">integer (8) FK</text>
<text text-anchor="start" x="635" y="-291.5" font-family="ArialMT" font-size="10.00" fill="#000000">pay_at </text>
<text text-anchor="start" x="667.8027" y="-291.5" font-family="Arial ItalicMT" font-size="10.00" fill="#999999">datetime (0,0)</text>
<text text-anchor="start" x="635" y="-278.5" font-family="ArialMT" font-size="10.00" fill="#000000">printout_at </text>
<text text-anchor="start" x="685.0342" y="-278.5" font-family="Arial ItalicMT" font-size="10.00" fill="#999999">datetime (0,0)</text>
<text text-anchor="start" x="635" y="-265.5" font-family="ArialMT" font-size="10.00" fill="#000000">deliver_at </text>
<text text-anchor="start" x="681.1377" y="-265.5" font-family="Arial ItalicMT" font-size="10.00" fill="#999999">datetime (0,0)</text>
<text text-anchor="start" x="635" y="-252.5" font-family="ArialMT" font-size="10.00" fill="#000000">receive_at </text>
<text text-anchor="start" x="683.916" y="-252.5" font-family="Arial ItalicMT" font-size="10.00" fill="#999999">datetime (0,0)</text>
<text text-anchor="start" x="635" y="-239.5" font-family="ArialMT" font-size="10.00" fill="#000000">rate_at </text>
<text text-anchor="start" x="668.9111" y="-239.5" font-family="Arial ItalicMT" font-size="10.00" fill="#999999">datetime (0,0)</text>
<text text-anchor="start" x="635" y="-226.5" font-family="ArialMT" font-size="10.00" fill="#000000">paid_code </text>
<text text-anchor="start" x="683.9307" y="-226.5" font-family="Arial ItalicMT" font-size="10.00" fill="#999999">string</text>
<text text-anchor="start" x="635" y="-213.5" font-family="ArialMT" font-size="10.00" fill="#000000">paid_code_at </text>
<text text-anchor="start" x="697.832" y="-213.5" font-family="Arial ItalicMT" font-size="10.00" fill="#999999">datetime (0,0)</text>
<text text-anchor="start" x="634.9536" y="-200.5" font-family="ArialMT" font-size="10.00" fill="#000000">request_by_code </text>
<text text-anchor="start" x="714.4556" y="-200.5" font-family="Arial ItalicMT" font-size="10.00" fill="#999999">boolean (0)</text>
<text text-anchor="start" x="635" y="-187.5" font-family="ArialMT" font-size="10.00" fill="#000000">aasm_state </text>
<text text-anchor="start" x="689.4727" y="-187.5" font-family="Arial ItalicMT" font-size="10.00" fill="#999999">string</text>
<text text-anchor="start" x="635" y="-174.5" font-family="ArialMT" font-size="10.00" fill="#000000">settings </text>
<text text-anchor="start" x="672.2412" y="-174.5" font-family="Arial ItalicMT" font-size="10.00" fill="#999999">text</text>
</g>
<!-- m_Cert&#45;&gt;m_Paper -->
<g id="edge3" class="edge">
<title>m_Cert&#45;&gt;m_Paper</title>
<path fill="none" stroke="#000000" d="M508.9301,-363.7198C517.3381,-355.513 526.0349,-347.0245 534.7233,-338.544"/>
<ellipse fill="none" stroke="#000000" cx="506.9432" cy="-365.6592" rx="2.4" ry="2.4"/>
<ellipse fill="#000000" stroke="#000000" cx="540.9742" cy="-332.4427" rx="2.4" ry="2.4"/>
<polygon fill="#000000" stroke="#000000" points="536.4298,-339.8129 539.2567,-334.1191 533.4962,-336.8072 536.4298,-339.8129"/>
</g>
<!-- m_Cert&#45;&gt;m_Photo -->
<g id="edge9" class="edge">
<title>m_Cert&#45;&gt;m_Photo</title>
<path fill="none" stroke="#000000" d="M277.0942,-402.4872C199.1416,-385.3392 117.4813,-361.0059 93,-331 36.5871,-261.8568 52.955,-146.3249 64.6843,-92.8174"/>
<ellipse fill="none" stroke="#000000" cx="279.878" cy="-403.0946" rx="2.4" ry="2.4"/>
<ellipse fill="none" stroke="#000000" cx="66.6211" cy="-84.4223" rx="2.4" ry="2.4"/>
<polygon fill="#000000" stroke="#000000" points="66.7789,-93.0794 66.0816,-86.7608 62.6864,-92.1352 66.7789,-93.0794"/>
</g>
<!-- m_Udollar -->
<g id="node14" class="node">
<title>m_Udollar</title>
<path fill="none" stroke="#000000" d="M430,-.5C430,-.5 694,-.5 694,-.5 700,-.5 706,-6.5 706,-12.5 706,-12.5 706,-115.5 706,-115.5 706,-121.5 700,-127.5 694,-127.5 694,-127.5 430,-127.5 430,-127.5 424,-127.5 418,-121.5 418,-115.5 418,-115.5 418,-12.5 418,-12.5 418,-6.5 424,-.5 430,-.5"/>
<text text-anchor="start" x="470.5762" y="-60.2" font-family="Arial BoldMT" font-size="11.00" fill="#000000">Udollar</text>
<polyline fill="none" stroke="#000000" points="562,-.5 562,-127.5 "/>
<text text-anchor="start" x="569" y="-114" font-family="ArialMT" font-size="10.00" fill="#000000">user_id </text>
<text text-anchor="start" x="604.5762" y="-114" font-family="Arial ItalicMT" font-size="10.00" fill="#999999">integer (8)</text>
<text text-anchor="start" x="569" y="-101" font-family="ArialMT" font-size="10.00" fill="#000000">payable_type </text>
<text text-anchor="start" x="631.2705" y="-101" font-family="Arial ItalicMT" font-size="10.00" fill="#999999">string</text>
<text text-anchor="start" x="569" y="-88" font-family="ArialMT" font-size="10.00" fill="#000000">payable_id </text>
<text text-anchor="start" x="620.1523" y="-88" font-family="Arial ItalicMT" font-size="10.00" fill="#999999">integer (8) FK</text>
<text text-anchor="start" x="569" y="-75" font-family="ArialMT" font-size="10.00" fill="#000000">payment </text>
<text text-anchor="start" x="610.1328" y="-75" font-family="Arial ItalicMT" font-size="10.00" fill="#999999">integer</text>
<text text-anchor="start" x="569" y="-62" font-family="ArialMT" font-size="10.00" fill="#000000">balance </text>
<text text-anchor="start" x="606.8076" y="-62" font-family="Arial ItalicMT" font-size="10.00" fill="#999999">integer</text>
<text text-anchor="start" x="569" y="-49" font-family="ArialMT" font-size="10.00" fill="#000000">title </text>
<text text-anchor="start" x="587.3398" y="-49" font-family="Arial ItalicMT" font-size="10.00" fill="#999999">string</text>
<text text-anchor="start" x="569" y="-36" font-family="ArialMT" font-size="10.00" fill="#000000">message </text>
<text text-anchor="start" x="612.3545" y="-36" font-family="Arial ItalicMT" font-size="10.00" fill="#999999">string</text>
<text text-anchor="start" x="569" y="-23" font-family="ArialMT" font-size="10.00" fill="#000000">aasm_state </text>
<text text-anchor="start" x="623.4727" y="-23" font-family="Arial ItalicMT" font-size="10.00" fill="#999999">string</text>
<text text-anchor="start" x="569" y="-10" font-family="ArialMT" font-size="10.00" fill="#000000">settings </text>
<text text-anchor="start" x="606.2412" y="-10" font-family="Arial ItalicMT" font-size="10.00" fill="#999999">text</text>
</g>
<!-- m_Cert&#45;&gt;m_Udollar -->
<g id="edge8" class="edge">
<title>m_Cert&#45;&gt;m_Udollar</title>
<path fill="none" stroke="#000000" d="M436.2222,-362.3838C435.7856,-306.5332 441.3044,-226.9304 470,-164 474.3677,-154.4215 480.0082,-145.1437 486.3451,-136.3529"/>
<ellipse fill="none" stroke="#000000" cx="436.2509" cy="-364.9748" rx="2.4" ry="2.4"/>
<ellipse fill="none" stroke="#000000" cx="491.4411" cy="-129.6427" rx="2.4" ry="2.4"/>
<polygon fill="#000000" stroke="#000000" points="488.0332,-137.6023 489.9896,-131.554 484.6884,-135.0621 488.0332,-137.6023"/>
</g>
<!-- m_CertDetail -->
<g id="node3" class="node">
<title>m_CertDetail</title>
<path fill="none" stroke="#000000" d="M1462,-643.5C1462,-643.5 1776,-643.5 1776,-643.5 1782,-643.5 1788,-649.5 1788,-655.5 1788,-655.5 1788,-1109.5 1788,-1109.5 1788,-1115.5 1782,-1121.5 1776,-1121.5 1776,-1121.5 1462,-1121.5 1462,-1121.5 1456,-1121.5 1450,-1115.5 1450,-1109.5 1450,-1109.5 1450,-655.5 1450,-655.5 1450,-649.5 1456,-643.5 1462,-643.5"/>
<text text-anchor="start" x="1495.5481" y="-878.7" font-family="Arial BoldMT" font-size="11.00" fill="#000000">CertDetail</text>
<polyline fill="none" stroke="#000000" points="1594,-643.5 1594,-1121.5 "/>
<text text-anchor="start" x="1601" y="-1108.5" font-family="ArialMT" font-size="10.00" fill="#000000">CLAS_SERIAL </text>
<text text-anchor="start" x="1670.6631" y="-1108.5" font-family="Arial ItalicMT" font-size="10.00" fill="#999999">integer</text>
<text text-anchor="start" x="1601" y="-1095.5" font-family="ArialMT" font-size="10.00" fill="#000000">CLAS_ID </text>
<text text-anchor="start" x="1645.4629" y="-1095.5" font-family="Arial ItalicMT" font-size="10.00" fill="#999999">string</text>
<text text-anchor="start" x="1601" y="-1082.5" font-family="ArialMT" font-size="10.00" fill="#000000">CLAS_NAME </text>
<text text-anchor="start" x="1664.3545" y="-1082.5" font-family="Arial ItalicMT" font-size="10.00" fill="#999999">string</text>
<text text-anchor="start" x="1601" y="-1069.5" font-family="ArialMT" font-size="10.00" fill="#000000">CLAS_ENGNAME </text>
<text text-anchor="start" x="1686.0244" y="-1069.5" font-family="Arial ItalicMT" font-size="10.00" fill="#999999">string</text>
<text text-anchor="start" x="1601" y="-1056.5" font-family="ArialMT" font-size="10.00" fill="#000000">STUD_ID </text>
<text text-anchor="start" x="1646.5615" y="-1056.5" font-family="Arial ItalicMT" font-size="10.00" fill="#999999">string</text>
<text text-anchor="start" x="1601" y="-1043.5" font-family="ArialMT" font-size="10.00" fill="#000000">STUD_NO </text>
<text text-anchor="start" x="1651.5615" y="-1043.5" font-family="Arial ItalicMT" font-size="10.00" fill="#999999">integer</text>
<text text-anchor="start" x="1601" y="-1030.5" font-family="ArialMT" font-size="10.00" fill="#000000">STUD_NAME </text>
<text text-anchor="start" x="1665.4531" y="-1030.5" font-family="Arial ItalicMT" font-size="10.00" fill="#999999">string</text>
<text text-anchor="start" x="1601" y="-1017.5" font-family="ArialMT" font-size="10.00" fill="#000000">STUD_ENGNAME </text>
<text text-anchor="start" x="1687.123" y="-1017.5" font-family="Arial ItalicMT" font-size="10.00" fill="#999999">string</text>
<text text-anchor="start" x="1601" y="-1004.5" font-family="ArialMT" font-size="10.00" fill="#000000">BIRTH </text>
<text text-anchor="start" x="1633.5977" y="-1004.5" font-family="Arial ItalicMT" font-size="10.00" fill="#999999">datetime (0,0)</text>
<text text-anchor="start" x="1601" y="-991.5" font-family="ArialMT" font-size="10.00" fill="#000000">SEX </text>
<text text-anchor="start" x="1623.7881" y="-991.5" font-family="Arial ItalicMT" font-size="10.00" fill="#999999">string</text>
<text text-anchor="start" x="1601" y="-978.5" font-family="ArialMT" font-size="10.00" fill="#000000">ITEM_POINT </text>
<text text-anchor="start" x="1663.6025" y="-978.5" font-family="Arial ItalicMT" font-size="10.00" fill="#999999">decimal (10,0)</text>
<text text-anchor="start" x="1601" y="-965.5" font-family="ArialMT" font-size="10.00" fill="#000000">SCORE </text>
<text text-anchor="start" x="1639.3398" y="-965.5" font-family="Arial ItalicMT" font-size="10.00" fill="#999999">integer</text>
<text text-anchor="start" x="1601" y="-952.5" font-family="ArialMT" font-size="10.00" fill="#000000">ITEM_NO </text>
<text text-anchor="start" x="1648.2266" y="-952.5" font-family="Arial ItalicMT" font-size="10.00" fill="#999999">string</text>
<text text-anchor="start" x="1601" y="-939.5" font-family="ArialMT" font-size="10.00" fill="#000000">ITEM_NAME </text>
<text text-anchor="start" x="1662.1182" y="-939.5" font-family="Arial ItalicMT" font-size="10.00" fill="#999999">string</text>
<text text-anchor="start" x="1601" y="-926.5" font-family="ArialMT" font-size="10.00" fill="#000000">MASTER_NO </text>
<text text-anchor="start" x="1666.0098" y="-926.5" font-family="Arial ItalicMT" font-size="10.00" fill="#999999">string</text>
<text text-anchor="start" x="1601" y="-913.5" font-family="ArialMT" font-size="10.00" fill="#000000">CLS_POINTS </text>
<text text-anchor="start" x="1666.0195" y="-913.5" font-family="Arial ItalicMT" font-size="10.00" fill="#999999">string</text>
<text text-anchor="start" x="1601" y="-900.5" font-family="ArialMT" font-size="10.00" fill="#000000">ENG_NAME </text>
<text text-anchor="start" x="1659.9014" y="-900.5" font-family="Arial ItalicMT" font-size="10.00" fill="#999999">string</text>
<text text-anchor="start" x="1601" y="-887.5" font-family="ArialMT" font-size="10.00" fill="#000000">BUDG_MONTH </text>
<text text-anchor="start" x="1674.8916" y="-887.5" font-family="Arial ItalicMT" font-size="10.00" fill="#999999">integer</text>
<text text-anchor="start" x="1601" y="-874.5" font-family="ArialMT" font-size="10.00" fill="#000000">BUDG_YEAR </text>
<text text-anchor="start" x="1665.4629" y="-874.5" font-family="Arial ItalicMT" font-size="10.00" fill="#999999">integer</text>
<text text-anchor="start" x="1600.7925" y="-861.5" font-family="ArialMT" font-size="10.00" fill="#000000">BUDG_ACTUOPENDATE </text>
<text text-anchor="start" x="1719.5132" y="-861.5" font-family="Arial ItalicMT" font-size="10.00" fill="#999999">datetime (0,0)</text>
<text text-anchor="start" x="1601" y="-848.5" font-family="ArialMT" font-size="10.00" fill="#000000">CLAS_WORD </text>
<text text-anchor="start" x="1667.123" y="-848.5" font-family="Arial ItalicMT" font-size="10.00" fill="#999999">string</text>
<text text-anchor="start" x="1601" y="-835.5" font-family="ArialMT" font-size="10.00" fill="#000000">CLAS_ENDDATE </text>
<text text-anchor="start" x="1682.5039" y="-835.5" font-family="Arial ItalicMT" font-size="10.00" fill="#999999">datetime (0,0)</text>
<text text-anchor="start" x="1601" y="-822.5" font-family="ArialMT" font-size="10.00" fill="#000000">SNO </text>
<text text-anchor="start" x="1625.4482" y="-822.5" font-family="Arial ItalicMT" font-size="10.00" fill="#999999">integer</text>
<text text-anchor="start" x="1601" y="-809.5" font-family="ArialMT" font-size="10.00" fill="#000000">ABS_HOUR </text>
<text text-anchor="start" x="1658.793" y="-809.5" font-family="Arial ItalicMT" font-size="10.00" fill="#999999">integer</text>
<text text-anchor="start" x="1601" y="-796.5" font-family="ArialMT" font-size="10.00" fill="#000000">BUDG_TOTALHOURS </text>
<text text-anchor="start" x="1705.6484" y="-796.5" font-family="Arial ItalicMT" font-size="10.00" fill="#999999">decimal (10,0)</text>
<text text-anchor="start" x="1601" y="-783.5" font-family="ArialMT" font-size="10.00" fill="#000000">BUDG_HOURCOUNT </text>
<text text-anchor="start" x="1703.0459" y="-783.5" font-family="Arial ItalicMT" font-size="10.00" fill="#999999">decimal (10,0)</text>
<text text-anchor="start" x="1601" y="-770.5" font-family="ArialMT" font-size="10.00" fill="#000000">GRP_SNO </text>
<text text-anchor="start" x="1652.6797" y="-770.5" font-family="Arial ItalicMT" font-size="10.00" fill="#999999">integer</text>
<text text-anchor="start" x="1601" y="-757.5" font-family="ArialMT" font-size="10.00" fill="#000000">scls_id </text>
<text text-anchor="start" x="1634.3447" y="-757.5" font-family="Arial ItalicMT" font-size="10.00" fill="#999999">string</text>
<text text-anchor="start" x="1601" y="-744.5" font-family="ArialMT" font-size="10.00" fill="#000000">MEMO </text>
<text text-anchor="start" x="1634.8867" y="-744.5" font-family="Arial ItalicMT" font-size="10.00" fill="#999999">string</text>
<text text-anchor="start" x="1601" y="-731.5" font-family="ArialMT" font-size="10.00" fill="#000000">REQUIRED </text>
<text text-anchor="start" x="1656.5615" y="-731.5" font-family="Arial ItalicMT" font-size="10.00" fill="#999999">string</text>
<text text-anchor="start" x="1601" y="-718.5" font-family="ArialMT" font-size="10.00" fill="#000000">TERM </text>
<text text-anchor="start" x="1632.1084" y="-718.5" font-family="Arial ItalicMT" font-size="10.00" fill="#999999">string</text>
<text text-anchor="start" x="1601" y="-705.5" font-family="ArialMT" font-size="10.00" fill="#000000">OPEN_DATE </text>
<text text-anchor="start" x="1663.6074" y="-705.5" font-family="Arial ItalicMT" font-size="10.00" fill="#999999">datetime (0,0)</text>
<text text-anchor="start" x="1601" y="-692.5" font-family="ArialMT" font-size="10.00" fill="#000000">END_DATE </text>
<text text-anchor="start" x="1656.3809" y="-692.5" font-family="Arial ItalicMT" font-size="10.00" fill="#999999">datetime (0,0)</text>
<text text-anchor="start" x="1601" y="-679.5" font-family="ArialMT" font-size="10.00" fill="#000000">OUT_SNO </text>
<text text-anchor="start" x="1652.1182" y="-679.5" font-family="Arial ItalicMT" font-size="10.00" fill="#999999">string</text>
<text text-anchor="start" x="1601" y="-666.5" font-family="ArialMT" font-size="10.00" fill="#000000">GRAD_SIGN </text>
<text text-anchor="start" x="1662.6797" y="-666.5" font-family="Arial ItalicMT" font-size="10.00" fill="#999999">string</text>
<text text-anchor="start" x="1601" y="-653.5" font-family="ArialMT" font-size="10.00" fill="#000000">settings </text>
<text text-anchor="start" x="1638.2412" y="-653.5" font-family="Arial ItalicMT" font-size="10.00" fill="#999999">text</text>
</g>
<!-- m_Course -->
<g id="node4" class="node">
<title>m_Course</title>
<path fill="none" stroke="#000000" d="M467,-825.5C467,-825.5 731,-825.5 731,-825.5 737,-825.5 743,-831.5 743,-837.5 743,-837.5 743,-927.5 743,-927.5 743,-933.5 737,-939.5 731,-939.5 731,-939.5 467,-939.5 467,-939.5 461,-939.5 455,-933.5 455,-927.5 455,-927.5 455,-837.5 455,-837.5 455,-831.5 461,-825.5 467,-825.5"/>
<text text-anchor="start" x="507.27" y="-878.7" font-family="Arial BoldMT" font-size="11.00" fill="#000000">Course</text>
<polyline fill="none" stroke="#000000" points="599,-825.5 599,-939.5 "/>
<text text-anchor="start" x="606" y="-926.5" font-family="ArialMT" font-size="10.00" fill="#000000">title </text>
<text text-anchor="start" x="624.3398" y="-926.5" font-family="Arial ItalicMT" font-size="10.00" fill="#999999">string</text>
<text text-anchor="start" x="606" y="-913.5" font-family="ArialMT" font-size="10.00" fill="#000000">has_cert </text>
<text text-anchor="start" x="647.1328" y="-913.5" font-family="Arial ItalicMT" font-size="10.00" fill="#999999">boolean (0)</text>
<text text-anchor="start" x="606" y="-900.5" font-family="ArialMT" font-size="10.00" fill="#000000">hours </text>
<text text-anchor="start" x="633.793" y="-900.5" font-family="Arial ItalicMT" font-size="10.00" fill="#999999">integer</text>
<text text-anchor="start" x="606" y="-887.5" font-family="ArialMT" font-size="10.00" fill="#000000">percentage </text>
<text text-anchor="start" x="658.8174" y="-887.5" font-family="Arial ItalicMT" font-size="10.00" fill="#999999">integer</text>
<text text-anchor="start" x="606" y="-874.5" font-family="ArialMT" font-size="10.00" fill="#000000">start_date </text>
<text text-anchor="start" x="653.251" y="-874.5" font-family="Arial ItalicMT" font-size="10.00" fill="#999999">datetime (0,0)</text>
<text text-anchor="start" x="606" y="-861.5" font-family="ArialMT" font-size="10.00" fill="#000000">end_date </text>
<text text-anchor="start" x="650.4873" y="-861.5" font-family="Arial ItalicMT" font-size="10.00" fill="#999999">datetime (0,0)</text>
<text text-anchor="start" x="606" y="-848.5" font-family="ArialMT" font-size="10.00" fill="#000000">aasm_state </text>
<text text-anchor="start" x="660.4727" y="-848.5" font-family="Arial ItalicMT" font-size="10.00" fill="#999999">string</text>
<text text-anchor="start" x="606" y="-835.5" font-family="ArialMT" font-size="10.00" fill="#000000">settings </text>
<text text-anchor="start" x="643.2412" y="-835.5" font-family="Arial ItalicMT" font-size="10.00" fill="#999999">text</text>
</g>
<!-- m_Course&#45;&gt;m_Cert -->
<g id="edge11" class="edge">
<title>m_Course&#45;&gt;m_Cert</title>
<path fill="none" stroke="#000000" stroke-dasharray="1,5" d="M576.1107,-820.6611C551.7602,-764.2906 507.4946,-683.7844 441,-643 380.3767,-605.8168 170.3753,-660.0411 123,-607 100.4989,-581.8079 103.0288,-558.2413 123,-531 142.2705,-504.7144 206.2524,-482.1561 271.7371,-465.1534"/>
<ellipse fill="none" stroke="#000000" cx="577.1741" cy="-823.1496" rx="2.4" ry="2.4"/>
<ellipse fill="none" stroke="#000000" cx="279.9276" cy="-463.0655" rx="2.4" ry="2.4"/>
<polygon fill="#000000" stroke="#000000" points="272.3067,-467.1754 277.602,-463.6583 271.2692,-463.1056 272.3067,-467.1754"/>
</g>
<!-- m_CourseSubject -->
<g id="node5" class="node">
<title>m_CourseSubject</title>
<path fill="none" stroke="#000000" d="M843,-538C843,-538 1107,-538 1107,-538 1113,-538 1119,-544 1119,-550 1119,-550 1119,-588 1119,-588 1119,-594 1113,-600 1107,-600 1107,-600 843,-600 843,-600 837,-600 831,-594 831,-588 831,-588 831,-550 831,-550 831,-544 837,-538 843,-538"/>
<text text-anchor="start" x="864.925" y="-565.2" font-family="Arial BoldMT" font-size="11.00" fill="#000000">CourseSubject</text>
<polyline fill="none" stroke="#000000" points="975,-538 975,-600 "/>
<text text-anchor="start" x="982" y="-587" font-family="ArialMT" font-size="10.00" fill="#000000">course_id </text>
<text text-anchor="start" x="1028.1377" y="-587" font-family="Arial ItalicMT" font-size="10.00" fill="#999999">integer (8) ∗ FK</text>
<text text-anchor="start" x="982" y="-574" font-family="ArialMT" font-size="10.00" fill="#000000">subject_id </text>
<text text-anchor="start" x="1029.8076" y="-574" font-family="Arial ItalicMT" font-size="10.00" fill="#999999">integer (8) ∗ FK</text>
<text text-anchor="start" x="982" y="-561" font-family="ArialMT" font-size="10.00" fill="#000000">credits </text>
<text text-anchor="start" x="1014.2314" y="-561" font-family="Arial ItalicMT" font-size="10.00" fill="#999999">integer</text>
<text text-anchor="start" x="982" y="-548" font-family="ArialMT" font-size="10.00" fill="#000000">settings </text>
<text text-anchor="start" x="1019.2412" y="-548" font-family="Arial ItalicMT" font-size="10.00" fill="#999999">text</text>
</g>
<!-- m_Course&#45;&gt;m_CourseSubject -->
<g id="edge13" class="edge">
<title>m_Course&#45;&gt;m_CourseSubject</title>
<path fill="none" stroke="#000000" d="M625.7833,-820.7442C652.1404,-766.74 697.2525,-689.8246 758,-643 778.9888,-626.8217 803.7374,-614.0533 828.8705,-604.0154"/>
<ellipse fill="none" stroke="#000000" cx="624.6508" cy="-823.0831" rx="2.4" ry="2.4"/>
<ellipse fill="#000000" stroke="#000000" cx="837.0316" cy="-600.8807" rx="2.4" ry="2.4"/>
<polygon fill="#000000" stroke="#000000" points="829.9431,-605.8531 834.7912,-601.7413 828.4371,-601.9324 829.9431,-605.8531"/>
</g>
<!-- m_CourseTemplate -->
<g id="node6" class="node">
<title>m_CourseTemplate</title>
<path fill="none" stroke="#000000" d="M150,-531.5C150,-531.5 414,-531.5 414,-531.5 420,-531.5 426,-537.5 426,-543.5 426,-543.5 426,-594.5 426,-594.5 426,-600.5 420,-606.5 414,-606.5 414,-606.5 150,-606.5 150,-606.5 144,-606.5 138,-600.5 138,-594.5 138,-594.5 138,-543.5 138,-543.5 138,-537.5 144,-531.5 150,-531.5"/>
<text text-anchor="start" x="167.9531" y="-565.2" font-family="Arial BoldMT" font-size="11.00" fill="#000000">CourseTemplate</text>
<polyline fill="none" stroke="#000000" points="282,-531.5 282,-606.5 "/>
<text text-anchor="start" x="289" y="-593" font-family="ArialMT" font-size="10.00" fill="#000000">course_id </text>
<text text-anchor="start" x="335.1377" y="-593" font-family="Arial ItalicMT" font-size="10.00" fill="#999999">integer (8) FK</text>
<text text-anchor="start" x="289" y="-580" font-family="ArialMT" font-size="10.00" fill="#000000">template_id </text>
<text text-anchor="start" x="343.4775" y="-580" font-family="Arial ItalicMT" font-size="10.00" fill="#999999">integer (8) FK</text>
<text text-anchor="start" x="289" y="-567" font-family="ArialMT" font-size="10.00" fill="#000000">expired_date </text>
<text text-anchor="start" x="349.6006" y="-567" font-family="Arial ItalicMT" font-size="10.00" fill="#999999">datetime (0,0)</text>
<text text-anchor="start" x="289" y="-554" font-family="ArialMT" font-size="10.00" fill="#000000">settings </text>
<text text-anchor="start" x="326.2412" y="-554" font-family="Arial ItalicMT" font-size="10.00" fill="#999999">text (16777215)</text>
<text text-anchor="start" x="289" y="-541" font-family="ArialMT" font-size="10.00" fill="#000000">include_scores </text>
<text text-anchor="start" x="358.4824" y="-541" font-family="Arial ItalicMT" font-size="10.00" fill="#999999">boolean (0)</text>
</g>
<!-- m_Course&#45;&gt;m_CourseTemplate -->
<g id="edge12" class="edge">
<title>m_Course&#45;&gt;m_CourseTemplate</title>
<path fill="none" stroke="#000000" d="M570.5957,-821.0005C543.5643,-768.0673 498.5152,-692.5972 441,-643 427.1219,-631.0325 410.9807,-620.6018 394.4076,-611.647"/>
<ellipse fill="none" stroke="#000000" cx="571.7469" cy="-823.2699" rx="2.4" ry="2.4"/>
<ellipse fill="#000000" stroke="#000000" cx="386.7421" cy="-607.6535" rx="2.4" ry="2.4"/>
<polygon fill="#000000" stroke="#000000" points="395.162,-609.6721 388.8705,-608.7623 393.2214,-613.397 395.162,-609.6721"/>
</g>
<!-- m_CourseUser -->
<g id="node7" class="node">
<title>m_CourseUser</title>
<path fill="none" stroke="#000000" d="M467,-544.5C467,-544.5 731,-544.5 731,-544.5 737,-544.5 743,-550.5 743,-556.5 743,-556.5 743,-581.5 743,-581.5 743,-587.5 737,-593.5 731,-593.5 731,-593.5 467,-593.5 467,-593.5 461,-593.5 455,-587.5 455,-581.5 455,-581.5 455,-556.5 455,-556.5 455,-550.5 461,-544.5 467,-544.5"/>
<text text-anchor="start" x="495.6577" y="-565.2" font-family="Arial BoldMT" font-size="11.00" fill="#000000">CourseUser</text>
<polyline fill="none" stroke="#000000" points="599,-544.5 599,-593.5 "/>
<text text-anchor="start" x="606" y="-580" font-family="ArialMT" font-size="10.00" fill="#000000">course_id </text>
<text text-anchor="start" x="652.1377" y="-580" font-family="Arial ItalicMT" font-size="10.00" fill="#999999">integer (8) ∗ FK</text>
<text text-anchor="start" x="606" y="-567" font-family="ArialMT" font-size="10.00" fill="#000000">user_id </text>
<text text-anchor="start" x="641.5762" y="-567" font-family="Arial ItalicMT" font-size="10.00" fill="#999999">integer (8) ∗ FK</text>
<text text-anchor="start" x="606" y="-554" font-family="ArialMT" font-size="10.00" fill="#000000">settings </text>
<text text-anchor="start" x="643.2412" y="-554" font-family="Arial ItalicMT" font-size="10.00" fill="#999999">text</text>
</g>
<!-- m_Course&#45;&gt;m_CourseUser -->
<g id="edge10" class="edge">
<title>m_Course&#45;&gt;m_CourseUser</title>
<path fill="none" stroke="#000000" d="M599,-820.4372C599,-755.9223 599,-657.1834 599,-604.6969"/>
<ellipse fill="none" stroke="#000000" cx="599" cy="-822.9638" rx="2.4" ry="2.4"/>
<ellipse fill="#000000" stroke="#000000" cx="599" cy="-596.0167" rx="2.4" ry="2.4"/>
<polygon fill="#000000" stroke="#000000" points="601.1001,-604.4167 599,-598.4167 596.9001,-604.4167 601.1001,-604.4167"/>
</g>
<!-- m_CourseUserSubject -->
<g id="node8" class="node">
<title>m_CourseUserSubject</title>
<path fill="none" stroke="#000000" d="M736,-400C736,-400 1020,-400 1020,-400 1026,-400 1032,-406 1032,-412 1032,-412 1032,-450 1032,-450 1032,-456 1026,-462 1020,-462 1020,-462 736,-462 736,-462 730,-462 724,-456 724,-450 724,-450 724,-412 724,-412 724,-406 730,-400 736,-400"/>
<text text-anchor="start" x="746.3127" y="-427.2" font-family="Arial BoldMT" font-size="11.00" fill="#000000">CourseUserSubject</text>
<polyline fill="none" stroke="#000000" points="868,-400 868,-462 "/>
<text text-anchor="start" x="875" y="-449" font-family="ArialMT" font-size="10.00" fill="#000000">course_user_id </text>
<text text-anchor="start" x="946.1523" y="-449" font-family="Arial ItalicMT" font-size="10.00" fill="#999999">integer (8) ∗ FK</text>
<text text-anchor="start" x="874.7754" y="-436" font-family="ArialMT" font-size="10.00" fill="#000000">course_subject_id </text>
<text text-anchor="start" x="958.1592" y="-436" font-family="Arial ItalicMT" font-size="10.00" fill="#999999">integer (8) ∗ FK</text>
<text text-anchor="start" x="875" y="-423" font-family="ArialMT" font-size="10.00" fill="#000000">score </text>
<text text-anchor="start" x="902.2314" y="-423" font-family="Arial ItalicMT" font-size="10.00" fill="#999999">integer</text>
<text text-anchor="start" x="875" y="-410" font-family="ArialMT" font-size="10.00" fill="#000000">settings </text>
<text text-anchor="start" x="912.2412" y="-410" font-family="Arial ItalicMT" font-size="10.00" fill="#999999">text</text>
</g>
<!-- m_CourseSubject&#45;&gt;m_CourseUserSubject -->
<g id="edge15" class="edge">
<title>m_CourseSubject&#45;&gt;m_CourseUserSubject</title>
<path fill="none" stroke="#000000" d="M950.1447,-533.6388C936.7538,-514.5878 920.1791,-491.0074 906.2946,-471.2542"/>
<ellipse fill="none" stroke="#000000" cx="951.6091" cy="-535.7222" rx="2.4" ry="2.4"/>
<ellipse fill="none" stroke="#000000" cx="901.3038" cy="-464.1539" rx="2.4" ry="2.4"/>
<polygon fill="#000000" stroke="#000000" points="907.8524,-469.8185 902.684,-466.1174 904.4163,-472.2337 907.8524,-469.8185"/>
</g>
<!-- m_CourseTemplate&#45;&gt;m_Cert -->
<g id="edge6" class="edge">
<title>m_CourseTemplate&#45;&gt;m_Cert</title>
<path fill="none" stroke="#000000" d="M328.8648,-528.0675C338.35,-519.783 348.5801,-510.8477 358.8587,-501.8702"/>
<ellipse fill="none" stroke="#000000" cx="326.9818" cy="-529.7121" rx="2.4" ry="2.4"/>
<ellipse fill="#000000" stroke="#000000" cx="365.2914" cy="-496.2518" rx="2.4" ry="2.4"/>
<polygon fill="#000000" stroke="#000000" points="360.3462,-503.3593 363.4838,-497.8306 357.5833,-500.196 360.3462,-503.3593"/>
</g>
<!-- m_CourseUser&#45;&gt;m_Cert -->
<g id="edge7" class="edge">
<title>m_CourseUser&#45;&gt;m_Cert</title>
<path fill="none" stroke="#000000" d="M566.7197,-540.9831C553.5306,-529.536 537.622,-515.7286 521.5997,-501.8224"/>
<ellipse fill="none" stroke="#000000" cx="568.7614" cy="-542.7552" rx="2.4" ry="2.4"/>
<ellipse fill="#000000" stroke="#000000" cx="515.037" cy="-496.1265" rx="2.4" ry="2.4"/>
<polygon fill="#000000" stroke="#000000" points="522.7574,-500.0465 516.8496,-497.6996 520.0044,-503.2185 522.7574,-500.0465"/>
</g>
<!-- m_CourseUser&#45;&gt;m_CourseUserSubject -->
<g id="edge18" class="edge">
<title>m_CourseUser&#45;&gt;m_CourseUserSubject</title>
<path fill="none" stroke="#000000" d="M652.985,-542.2978C696.3232,-520.8616 757.5897,-490.5578 805.2527,-466.9825"/>
<ellipse fill="none" stroke="#000000" cx="650.7094" cy="-543.4233" rx="2.4" ry="2.4"/>
<ellipse fill="none" stroke="#000000" cx="813.0544" cy="-463.1236" rx="2.4" ry="2.4"/>
<polygon fill="#000000" stroke="#000000" points="806.4561,-468.7302 810.9031,-464.1877 804.594,-464.9655 806.4561,-468.7302"/>
</g>
<!-- m_Paper&#45;&gt;m_Udollar -->
<g id="edge4" class="edge">
<title>m_Paper&#45;&gt;m_Udollar</title>
<path fill="none" stroke="#000000" d="M596.4241,-159.7095C593.8094,-152.4398 591.1828,-145.1369 588.61,-137.9838"/>
<ellipse fill="none" stroke="#000000" cx="597.2774" cy="-162.082" rx="2.4" ry="2.4"/>
<ellipse fill="none" stroke="#000000" cx="585.6991" cy="-129.8906" rx="2.4" ry="2.4"/>
<polygon fill="#000000" stroke="#000000" points="590.5182,-137.0841 586.5114,-132.149 586.566,-138.5056 590.5182,-137.0841"/>
</g>
<!-- m_Subject -->
<g id="node12" class="node">
<title>m_Subject</title>
<path fill="none" stroke="#000000" d="M1145,-858C1145,-858 1409,-858 1409,-858 1415,-858 1421,-864 1421,-870 1421,-870 1421,-895 1421,-895 1421,-901 1415,-907 1409,-907 1409,-907 1145,-907 1145,-907 1139,-907 1133,-901 1133,-895 1133,-895 1133,-870 1133,-870 1133,-864 1139,-858 1145,-858"/>
<text text-anchor="start" x="1184.655" y="-878.7" font-family="Arial BoldMT" font-size="11.00" fill="#000000">Subject</text>
<polyline fill="none" stroke="#000000" points="1277,-858 1277,-907 "/>
<text text-anchor="start" x="1284" y="-893.5" font-family="ArialMT" font-size="10.00" fill="#000000">user_id </text>
<text text-anchor="start" x="1319.5762" y="-893.5" font-family="Arial ItalicMT" font-size="10.00" fill="#999999">integer (8)</text>
<text text-anchor="start" x="1284" y="-880.5" font-family="ArialMT" font-size="10.00" fill="#000000">title </text>
<text text-anchor="start" x="1302.3398" y="-880.5" font-family="Arial ItalicMT" font-size="10.00" fill="#999999">string</text>
<text text-anchor="start" x="1284" y="-867.5" font-family="ArialMT" font-size="10.00" fill="#000000">settings </text>
<text text-anchor="start" x="1321.2412" y="-867.5" font-family="Arial ItalicMT" font-size="10.00" fill="#999999">text</text>
</g>
<!-- m_Subject&#45;&gt;m_CourseSubject -->
<g id="edge14" class="edge">
<title>m_Subject&#45;&gt;m_CourseSubject</title>
<path fill="none" stroke="#000000" d="M1263.704,-853.2391C1240.2743,-804.3531 1187.4646,-705.3065 1118,-643 1101.5477,-628.2431 1081.6182,-615.543 1061.9284,-605.0367"/>
<ellipse fill="none" stroke="#000000" cx="1264.848" cy="-855.6434" rx="2.4" ry="2.4"/>
<ellipse fill="#000000" stroke="#000000" cx="1054.4298" cy="-601.1585" rx="2.4" ry="2.4"/>
<polygon fill="#000000" stroke="#000000" points="1062.8557,-603.1522 1056.5616,-602.2611 1060.9263,-606.8827 1062.8557,-603.1522"/>
</g>
<!-- m_Template -->
<g id="node13" class="node">
<title>m_Template</title>
<path fill="none" stroke="#000000" d="M150,-851.5C150,-851.5 414,-851.5 414,-851.5 420,-851.5 426,-857.5 426,-863.5 426,-863.5 426,-901.5 426,-901.5 426,-907.5 420,-913.5 414,-913.5 414,-913.5 150,-913.5 150,-913.5 144,-913.5 138,-907.5 138,-901.5 138,-901.5 138,-863.5 138,-863.5 138,-857.5 144,-851.5 150,-851.5"/>
<text text-anchor="start" x="185.6831" y="-878.7" font-family="Arial BoldMT" font-size="11.00" fill="#000000">Template</text>
<polyline fill="none" stroke="#000000" points="282,-851.5 282,-913.5 "/>
<text text-anchor="start" x="289" y="-900.5" font-family="ArialMT" font-size="10.00" fill="#000000">user_id </text>
<text text-anchor="start" x="324.5762" y="-900.5" font-family="Arial ItalicMT" font-size="10.00" fill="#999999">integer (8)</text>
<text text-anchor="start" x="289" y="-887.5" font-family="ArialMT" font-size="10.00" fill="#000000">title </text>
<text text-anchor="start" x="307.3398" y="-887.5" font-family="Arial ItalicMT" font-size="10.00" fill="#999999">string</text>
<text text-anchor="start" x="289" y="-874.5" font-family="ArialMT" font-size="10.00" fill="#000000">data </text>
<text text-anchor="start" x="311.2412" y="-874.5" font-family="Arial ItalicMT" font-size="10.00" fill="#999999">text</text>
<text text-anchor="start" x="289" y="-861.5" font-family="ArialMT" font-size="10.00" fill="#000000">settings </text>
<text text-anchor="start" x="326.2412" y="-861.5" font-family="Arial ItalicMT" font-size="10.00" fill="#999999">text</text>
</g>
<!-- m_Template&#45;&gt;m_Cert -->
<g id="edge19" class="edge">
<title>m_Template&#45;&gt;m_Cert</title>
<path fill="none" stroke="#000000" stroke-dasharray="1,5" d="M294.581,-846.3544C315.5797,-791.9968 363.3003,-690.5207 441,-643 501.4823,-606.0093 710.7811,-659.8848 758,-607 780.4966,-581.804 777.9835,-558.2323 758,-531 738.6217,-504.5923 674.208,-481.9868 608.3737,-464.9839"/>
<ellipse fill="none" stroke="#000000" cx="293.6085" cy="-848.9024" rx="2.4" ry="2.4"/>
<ellipse fill="none" stroke="#000000" cx="600.1286" cy="-462.8934" rx="2.4" ry="2.4"/>
<polygon fill="#000000" stroke="#000000" points="608.7871,-462.9224 602.455,-463.4832 607.7548,-466.9935 608.7871,-462.9224"/>
</g>
<!-- m_Template&#45;&gt;m_CourseTemplate -->
<g id="edge16" class="edge">
<title>m_Template&#45;&gt;m_CourseTemplate</title>
<path fill="none" stroke="#000000" d="M282,-846.3906C282,-789.9378 282,-680.7081 282,-617.4665"/>
<ellipse fill="none" stroke="#000000" cx="282" cy="-848.8943" rx="2.4" ry="2.4"/>
<ellipse fill="#000000" stroke="#000000" cx="282" cy="-608.9939" rx="2.4" ry="2.4"/>
<polygon fill="#000000" stroke="#000000" points="284.1001,-617.3939 282,-611.3939 279.9001,-617.394 284.1001,-617.3939"/>
</g>
<!-- m_User -->
<g id="node15" class="node">
<title>m_User</title>
<path fill="none" stroke="#000000" d="M784.5,-786.5C784.5,-786.5 1091.5,-786.5 1091.5,-786.5 1097.5,-786.5 1103.5,-792.5 1103.5,-798.5 1103.5,-798.5 1103.5,-966.5 1103.5,-966.5 1103.5,-972.5 1097.5,-978.5 1091.5,-978.5 1091.5,-978.5 784.5,-978.5 784.5,-978.5 778.5,-978.5 772.5,-972.5 772.5,-966.5 772.5,-966.5 772.5,-798.5 772.5,-798.5 772.5,-792.5 778.5,-786.5 784.5,-786.5"/>
<text text-anchor="start" x="830.8877" y="-878.7" font-family="Arial BoldMT" font-size="11.00" fill="#000000">User</text>
<polyline fill="none" stroke="#000000" points="916.5,-786.5 916.5,-978.5 "/>
<text text-anchor="start" x="924" y="-965.5" font-family="ArialMT" font-size="10.00" fill="#000000">token </text>
<text text-anchor="start" x="951.2412" y="-965.5" font-family="Arial ItalicMT" font-size="10.00" fill="#999999">string</text>
<text text-anchor="start" x="924" y="-952.5" font-family="ArialMT" font-size="10.00" fill="#000000">name </text>
<text text-anchor="start" x="951.793" y="-952.5" font-family="Arial ItalicMT" font-size="10.00" fill="#999999">string</text>
<text text-anchor="start" x="924" y="-939.5" font-family="ArialMT" font-size="10.00" fill="#000000">email </text>
<text text-anchor="start" x="950.6748" y="-939.5" font-family="Arial ItalicMT" font-size="10.00" fill="#999999">string ∗ U</text>
<text text-anchor="start" x="924" y="-926.5" font-family="ArialMT" font-size="10.00" fill="#000000">encrypted_password </text>
<text text-anchor="start" x="1019.0537" y="-926.5" font-family="Arial ItalicMT" font-size="10.00" fill="#999999">string ∗</text>
<text text-anchor="start" x="924" y="-913.5" font-family="ArialMT" font-size="10.00" fill="#000000">reset_password_token </text>
<text text-anchor="start" x="1027.3936" y="-913.5" font-family="Arial ItalicMT" font-size="10.00" fill="#999999">string</text>
<text text-anchor="start" x="923.7861" y="-900.5" font-family="ArialMT" font-size="10.00" fill="#000000">reset_password_sent_at </text>
<text text-anchor="start" x="1035.5195" y="-900.5" font-family="Arial ItalicMT" font-size="10.00" fill="#999999">datetime (0,0)</text>
<text text-anchor="start" x="924" y="-887.5" font-family="ArialMT" font-size="10.00" fill="#000000">remember_created_at </text>
<text text-anchor="start" x="1025.1621" y="-887.5" font-family="Arial ItalicMT" font-size="10.00" fill="#999999">datetime (0,0)</text>
<text text-anchor="start" x="924" y="-874.5" font-family="ArialMT" font-size="10.00" fill="#000000">sign_in_count </text>
<text text-anchor="start" x="988.4922" y="-874.5" font-family="Arial ItalicMT" font-size="10.00" fill="#999999">integer ∗</text>
<text text-anchor="start" x="924" y="-861.5" font-family="ArialMT" font-size="10.00" fill="#000000">current_sign_in_at </text>
<text text-anchor="start" x="1009.0537" y="-861.5" font-family="Arial ItalicMT" font-size="10.00" fill="#999999">datetime (0,0)</text>
<text text-anchor="start" x="924" y="-848.5" font-family="ArialMT" font-size="10.00" fill="#000000">last_sign_in_at </text>
<text text-anchor="start" x="993.4922" y="-848.5" font-family="Arial ItalicMT" font-size="10.00" fill="#999999">datetime (0,0)</text>
<text text-anchor="start" x="924" y="-835.5" font-family="ArialMT" font-size="10.00" fill="#000000">current_sign_in_ip </text>
<text text-anchor="start" x="1008.4971" y="-835.5" font-family="Arial ItalicMT" font-size="10.00" fill="#999999">string</text>
<text text-anchor="start" x="924" y="-822.5" font-family="ArialMT" font-size="10.00" fill="#000000">last_sign_in_ip </text>
<text text-anchor="start" x="992.9355" y="-822.5" font-family="Arial ItalicMT" font-size="10.00" fill="#999999">string</text>
<text text-anchor="start" x="924" y="-809.5" font-family="ArialMT" font-size="10.00" fill="#000000">aasm_state </text>
<text text-anchor="start" x="978.4727" y="-809.5" font-family="Arial ItalicMT" font-size="10.00" fill="#999999">string</text>
<text text-anchor="start" x="924" y="-796.5" font-family="ArialMT" font-size="10.00" fill="#000000">settings </text>
<text text-anchor="start" x="961.2412" y="-796.5" font-family="Arial ItalicMT" font-size="10.00" fill="#999999">text</text>
</g>
<!-- m_User&#45;&gt;m_CourseUser -->
<g id="edge17" class="edge">
<title>m_User&#45;&gt;m_CourseUser</title>
<path fill="none" stroke="#000000" d="M878.8061,-782.0683C847.4422,-735.2656 805.566,-681.5391 758,-643 735.135,-624.4742 706.871,-609.3891 680.544,-597.7872"/>
<ellipse fill="none" stroke="#000000" cx="880.2861" cy="-784.2892" rx="2.4" ry="2.4"/>
<ellipse fill="#000000" stroke="#000000" cx="672.7701" cy="-594.4565" rx="2.4" ry="2.4"/>
<polygon fill="#000000" stroke="#000000" points="681.3183,-595.8344 674.9762,-595.4017 679.6642,-599.695 681.3183,-595.8344"/>
</g>
</g>
</svg>
