<?xml version="1.0" encoding="UTF-8" standalone="no"?>
<!DOCTYPE svg PUBLIC "-//W3C//DTD SVG 1.1//EN"
 "http://www.w3.org/Graphics/SVG/1.1/DTD/svg11.dtd">
<!-- Generated by graphviz version 2.40.1 (20161225.0304)
 -->
<!-- Title: Icert Pages: 1 -->
<svg width="1479pt" height="1445pt"
 viewBox="0.00 0.00 1478.60 1444.60" xmlns="http://www.w3.org/2000/svg" xmlns:xlink="http://www.w3.org/1999/xlink">
<g id="graph0" class="graph" transform="scale(1 1) rotate(0) translate(28.8 1415.8)">
<title>Icert</title>
<polygon fill="#ffffff" stroke="transparent" points="-28.8,28.8 -28.8,-1415.8 1449.8,-1415.8 1449.8,28.8 -28.8,28.8"/>
<text text-anchor="middle" x="710.5" y="-1372.6" font-family="Arial BoldMT" font-size="13.00" fill="#000000">Icert</text>
<!-- m_Asset -->
<g id="node1" class="node">
<title>m_Asset</title>
<path fill="none" stroke="#000000" d="M120,-203.5C120,-203.5 384,-203.5 384,-203.5 390,-203.5 396,-209.5 396,-215.5 396,-215.5 396,-279.5 396,-279.5 396,-285.5 390,-291.5 384,-291.5 384,-291.5 120,-291.5 120,-291.5 114,-291.5 108,-285.5 108,-279.5 108,-279.5 108,-215.5 108,-215.5 108,-209.5 114,-203.5 120,-203.5"/>
<text text-anchor="start" x="164.2446" y="-243.7" font-family="Arial BoldMT" font-size="11.00" fill="#000000">Asset</text>
<polyline fill="none" stroke="#000000" points="252,-203.5 252,-291.5 "/>
<text text-anchor="start" x="259" y="-278.5" font-family="ArialMT" font-size="10.00" fill="#000000">user_id </text>
<text text-anchor="start" x="294.5762" y="-278.5" font-family="Arial ItalicMT" font-size="10.00" fill="#999999">integer (8)</text>
<text text-anchor="start" x="259" y="-265.5" font-family="ArialMT" font-size="10.00" fill="#000000">type </text>
<text text-anchor="start" x="280.6797" y="-265.5" font-family="Arial ItalicMT" font-size="10.00" fill="#999999">string</text>
<text text-anchor="start" x="259" y="-252.5" font-family="ArialMT" font-size="10.00" fill="#000000">assetable_type </text>
<text text-anchor="start" x="329.0488" y="-252.5" font-family="Arial ItalicMT" font-size="10.00" fill="#999999">string</text>
<text text-anchor="start" x="259" y="-239.5" font-family="ArialMT" font-size="10.00" fill="#000000">assetable_id </text>
<text text-anchor="start" x="317.9307" y="-239.5" font-family="Arial ItalicMT" font-size="10.00" fill="#999999">integer (8) FK</text>
<text text-anchor="start" x="259" y="-226.5" font-family="ArialMT" font-size="10.00" fill="#000000">file </text>
<text text-anchor="start" x="274.5615" y="-226.5" font-family="Arial ItalicMT" font-size="10.00" fill="#999999">string</text>
<text text-anchor="start" x="259" y="-213.5" font-family="ArialMT" font-size="10.00" fill="#000000">settings </text>
<text text-anchor="start" x="296.2412" y="-213.5" font-family="Arial ItalicMT" font-size="10.00" fill="#999999">text</text>
</g>
<!-- m_Photo -->
<g id="node10" class="node">
<title>m_Photo</title>
<path fill="none" stroke="#999999" d="M12,-46C12,-46 132,-46 132,-46 138,-46 144,-52 144,-58 144,-58 144,-70 144,-70 144,-76 138,-82 132,-82 132,-82 12,-82 12,-82 6,-82 0,-76 0,-70 0,-70 0,-58 0,-58 0,-52 6,-46 12,-46"/>
<text text-anchor="start" x="55.627" y="-60.2" font-family="Arial BoldMT" font-size="11.00" fill="#999999">Photo</text>
</g>
<!-- m_Asset&#45;&gt;m_Photo -->
<g id="edge1" class="edge">
<title>m_Asset&#45;&gt;m_Photo</title>
<path fill="none" stroke="#999999" d="M199.7126,-194.1959C162.5702,-156.3313 114.9662,-107.8017 89.6641,-82.0075"/>
<polygon fill="none" stroke="#999999" points="197.0255,-197.4543 208.427,-203.0798 203.0221,-191.572 197.0255,-197.4543"/>
</g>
<!-- m_Picture -->
<g id="node11" class="node">
<title>m_Picture</title>
<path fill="none" stroke="#999999" d="M192,-46C192,-46 312,-46 312,-46 318,-46 324,-52 324,-58 324,-58 324,-70 324,-70 324,-76 318,-82 312,-82 312,-82 192,-82 192,-82 186,-82 180,-76 180,-70 180,-70 180,-58 180,-58 180,-52 186,-46 192,-46"/>
<text text-anchor="start" x="232.8823" y="-60.2" font-family="Arial BoldMT" font-size="11.00" fill="#999999">Picture</text>
</g>
<!-- m_Asset&#45;&gt;m_Picture -->
<g id="edge2" class="edge">
<title>m_Asset&#45;&gt;m_Picture</title>
<path fill="none" stroke="#999999" d="M252,-190.8138C252,-153.4844 252,-107.0398 252,-82.0075"/>
<polygon fill="none" stroke="#999999" points="247.8001,-191.0797 252,-203.0798 256.2001,-191.0798 247.8001,-191.0797"/>
</g>
<!-- m_Cert -->
<g id="node2" class="node">
<title>m_Cert</title>
<path fill="none" stroke="#000000" d="M294.5,-367.5C294.5,-367.5 585.5,-367.5 585.5,-367.5 591.5,-367.5 597.5,-373.5 597.5,-379.5 597.5,-379.5 597.5,-482.5 597.5,-482.5 597.5,-488.5 591.5,-494.5 585.5,-494.5 585.5,-494.5 294.5,-494.5 294.5,-494.5 288.5,-494.5 282.5,-488.5 282.5,-482.5 282.5,-482.5 282.5,-379.5 282.5,-379.5 282.5,-373.5 288.5,-367.5 294.5,-367.5"/>
<text text-anchor="start" x="342.1096" y="-427.2" font-family="Arial BoldMT" font-size="11.00" fill="#000000">Cert</text>
<polyline fill="none" stroke="#000000" points="426.5,-367.5 426.5,-494.5 "/>
<text text-anchor="start" x="434" y="-481" font-family="ArialMT" font-size="10.00" fill="#000000">course_user_id </text>
<text text-anchor="start" x="505.1523" y="-481" font-family="Arial ItalicMT" font-size="10.00" fill="#999999">integer (8) ∗ FK</text>
<text text-anchor="start" x="433.9404" y="-468" font-family="ArialMT" font-size="10.00" fill="#000000">course_template_id </text>
<text text-anchor="start" x="523.9941" y="-468" font-family="Arial ItalicMT" font-size="10.00" fill="#999999">integer (8) ∗ FK</text>
<text text-anchor="start" x="434" y="-455" font-family="ArialMT" font-size="10.00" fill="#000000">title </text>
<text text-anchor="start" x="452.3398" y="-455" font-family="Arial ItalicMT" font-size="10.00" fill="#999999">string</text>
<text text-anchor="start" x="434" y="-442" font-family="ArialMT" font-size="10.00" fill="#000000">expired_date </text>
<text text-anchor="start" x="494.6006" y="-442" font-family="Arial ItalicMT" font-size="10.00" fill="#999999">datetime (0,0)</text>
<text text-anchor="start" x="434" y="-429" font-family="ArialMT" font-size="10.00" fill="#000000">aasm_state </text>
<text text-anchor="start" x="488.4727" y="-429" font-family="Arial ItalicMT" font-size="10.00" fill="#999999">string</text>
<text text-anchor="start" x="434" y="-416" font-family="ArialMT" font-size="10.00" fill="#000000">qrcode_token </text>
<text text-anchor="start" x="497.3789" y="-416" font-family="Arial ItalicMT" font-size="10.00" fill="#999999">string</text>
<text text-anchor="start" x="434" y="-403" font-family="ArialMT" font-size="10.00" fill="#000000">qrcode_token_at </text>
<text text-anchor="start" x="511.2803" y="-403" font-family="Arial ItalicMT" font-size="10.00" fill="#999999">datetime (0,0)</text>
<text text-anchor="start" x="434" y="-390" font-family="ArialMT" font-size="10.00" fill="#000000">blockchain_token </text>
<text text-anchor="start" x="514.0537" y="-390" font-family="Arial ItalicMT" font-size="10.00" fill="#999999">string</text>
<text text-anchor="start" x="434" y="-377" font-family="ArialMT" font-size="10.00" fill="#000000">settings </text>
<text text-anchor="start" x="471.2412" y="-377" font-family="Arial ItalicMT" font-size="10.00" fill="#999999">text</text>
</g>
<!-- m_Cert&#45;&gt;m_Asset -->
<g id="edge5" class="edge">
<title>m_Cert&#45;&gt;m_Asset</title>
<path fill="none" stroke="#000000" d="M371.1603,-363.8081C349.4227,-342.5907 325.7472,-319.482 305.2691,-299.4941"/>
<ellipse fill="none" stroke="#000000" cx="373.0568" cy="-365.6592" rx="2.4" ry="2.4"/>
<ellipse fill="#000000" stroke="#000000" cx="299.0127" cy="-293.3874" rx="2.4" ry="2.4"/>
<polygon fill="#000000" stroke="#000000" points="306.4907,-297.7519 300.7302,-295.0638 303.5571,-300.7575 306.4907,-297.7519"/>
</g>
<!-- m_Paper -->
<g id="node9" class="node">
<title>m_Paper</title>
<path fill="none" stroke="#000000" d="M496,-164.5C496,-164.5 760,-164.5 760,-164.5 766,-164.5 772,-170.5 772,-176.5 772,-176.5 772,-318.5 772,-318.5 772,-324.5 766,-330.5 760,-330.5 760,-330.5 496,-330.5 496,-330.5 490,-330.5 484,-324.5 484,-318.5 484,-318.5 484,-176.5 484,-176.5 484,-170.5 490,-164.5 496,-164.5"/>
<text text-anchor="start" x="539.3235" y="-243.7" font-family="Arial BoldMT" font-size="11.00" fill="#000000">Paper</text>
<polyline fill="none" stroke="#000000" points="628,-164.5 628,-330.5 "/>
<text text-anchor="start" x="635" y="-317.5" font-family="ArialMT" font-size="10.00" fill="#000000">user_id </text>
<text text-anchor="start" x="670.5762" y="-317.5" font-family="Arial ItalicMT" font-size="10.00" fill="#999999">integer (8)</text>
<text text-anchor="start" x="635" y="-304.5" font-family="ArialMT" font-size="10.00" fill="#000000">cert_id </text>
<text text-anchor="start" x="667.793" y="-304.5" font-family="Arial ItalicMT" font-size="10.00" fill="#999999">integer (8) FK</text>
<text text-anchor="start" x="635" y="-291.5" font-family="ArialMT" font-size="10.00" fill="#000000">pay_at </text>
<text text-anchor="start" x="667.8027" y="-291.5" font-family="Arial ItalicMT" font-size="10.00" fill="#999999">datetime (0,0)</text>
<text text-anchor="start" x="635" y="-278.5" font-family="ArialMT" font-size="10.00" fill="#000000">printout_at </text>
<text text-anchor="start" x="685.0342" y="-278.5" font-family="Arial ItalicMT" font-size="10.00" fill="#999999">datetime (0,0)</text>
<text text-anchor="start" x="635" y="-265.5" font-family="ArialMT" font-size="10.00" fill="#000000">deliver_at </text>
<text text-anchor="start" x="681.1377" y="-265.5" font-family="Arial ItalicMT" font-size="10.00" fill="#999999">datetime (0,0)</text>
<text text-anchor="start" x="635" y="-252.5" font-family="ArialMT" font-size="10.00" fill="#000000">receive_at </text>
<text text-anchor="start" x="683.916" y="-252.5" font-family="Arial ItalicMT" font-size="10.00" fill="#999999">datetime (0,0)</text>
<text text-anchor="start" x="635" y="-239.5" font-family="ArialMT" font-size="10.00" fill="#000000">rate_at </text>
<text text-anchor="start" x="668.9111" y="-239.5" font-family="Arial ItalicMT" font-size="10.00" fill="#999999">datetime (0,0)</text>
<text text-anchor="start" x="635" y="-226.5" font-family="ArialMT" font-size="10.00" fill="#000000">paid_code </text>
<text text-anchor="start" x="683.9307" y="-226.5" font-family="Arial ItalicMT" font-size="10.00" fill="#999999">string</text>
<text text-anchor="start" x="635" y="-213.5" font-family="ArialMT" font-size="10.00" fill="#000000">paid_code_at </text>
<text text-anchor="start" x="697.832" y="-213.5" font-family="Arial ItalicMT" font-size="10.00" fill="#999999">datetime (0,0)</text>
<text text-anchor="start" x="634.9536" y="-200.5" font-family="ArialMT" font-size="10.00" fill="#000000">request_by_code </text>
<text text-anchor="start" x="714.4556" y="-200.5" font-family="Arial ItalicMT" font-size="10.00" fill="#999999">boolean (0)</text>
<text text-anchor="start" x="635" y="-187.5" font-family="ArialMT" font-size="10.00" fill="#000000">aasm_state </text>
<text text-anchor="start" x="689.4727" y="-187.5" font-family="Arial ItalicMT" font-size="10.00" fill="#999999">string</text>
<text text-anchor="start" x="635" y="-174.5" font-family="ArialMT" font-size="10.00" fill="#000000">settings </text>
<text text-anchor="start" x="672.2412" y="-174.5" font-family="Arial ItalicMT" font-size="10.00" fill="#999999">text</text>
</g>
<!-- m_Cert&#45;&gt;m_Paper -->
<g id="edge3" class="edge">
<title>m_Cert&#45;&gt;m_Paper</title>
<path fill="none" stroke="#000000" d="M508.9301,-363.7198C517.3381,-355.513 526.0349,-347.0245 534.7233,-338.544"/>
<ellipse fill="none" stroke="#000000" cx="506.9432" cy="-365.6592" rx="2.4" ry="2.4"/>
<ellipse fill="#000000" stroke="#000000" cx="540.9742" cy="-332.4427" rx="2.4" ry="2.4"/>
<polygon fill="#000000" stroke="#000000" points="536.4298,-339.8129 539.2567,-334.1191 533.4962,-336.8072 536.4298,-339.8129"/>
</g>
<!-- m_Cert&#45;&gt;m_Photo -->
<g id="edge9" class="edge">
<title>m_Cert&#45;&gt;m_Photo</title>
<path fill="none" stroke="#000000" d="M277.0942,-402.4872C199.1416,-385.3392 117.4813,-361.0059 93,-331 36.5871,-261.8568 52.955,-146.3249 64.6843,-92.8174"/>
<ellipse fill="none" stroke="#000000" cx="279.878" cy="-403.0946" rx="2.4" ry="2.4"/>
<ellipse fill="none" stroke="#000000" cx="66.6211" cy="-84.4223" rx="2.4" ry="2.4"/>
<polygon fill="#000000" stroke="#000000" points="66.7789,-93.0794 66.0816,-86.7608 62.6864,-92.1352 66.7789,-93.0794"/>
</g>
<!-- m_Udollar -->
<g id="node14" class="node">
<title>m_Udollar</title>
<path fill="none" stroke="#000000" d="M430,-.5C430,-.5 694,-.5 694,-.5 700,-.5 706,-6.5 706,-12.5 706,-12.5 706,-115.5 706,-115.5 706,-121.5 700,-127.5 694,-127.5 694,-127.5 430,-127.5 430,-127.5 424,-127.5 418,-121.5 418,-115.5 418,-115.5 418,-12.5 418,-12.5 418,-6.5 424,-.5 430,-.5"/>
<text text-anchor="start" x="470.5762" y="-60.2" font-family="Arial BoldMT" font-size="11.00" fill="#000000">Udollar</text>
<polyline fill="none" stroke="#000000" points="562,-.5 562,-127.5 "/>
<text text-anchor="start" x="569" y="-114" font-family="ArialMT" font-size="10.00" fill="#000000">user_id </text>
<text text-anchor="start" x="604.5762" y="-114" font-family="Arial ItalicMT" font-size="10.00" fill="#999999">integer (8)</text>
<text text-anchor="start" x="569" y="-101" font-family="ArialMT" font-size="10.00" fill="#000000">payable_type </text>
<text text-anchor="start" x="631.2705" y="-101" font-family="Arial ItalicMT" font-size="10.00" fill="#999999">string</text>
<text text-anchor="start" x="569" y="-88" font-family="ArialMT" font-size="10.00" fill="#000000">payable_id </text>
<text text-anchor="start" x="620.1523" y="-88" font-family="Arial ItalicMT" font-size="10.00" fill="#999999">integer (8) FK</text>
<text text-anchor="start" x="569" y="-75" font-family="ArialMT" font-size="10.00" fill="#000000">payment </text>
<text text-anchor="start" x="610.1328" y="-75" font-family="Arial ItalicMT" font-size="10.00" fill="#999999">integer</text>
<text text-anchor="start" x="569" y="-62" font-family="ArialMT" font-size="10.00" fill="#000000">balance </text>
<text text-anchor="start" x="606.8076" y="-62" font-family="Arial ItalicMT" font-size="10.00" fill="#999999">integer</text>
<text text-anchor="start" x="569" y="-49" font-family="ArialMT" font-size="10.00" fill="#000000">title </text>
<text text-anchor="start" x="587.3398" y="-49" font-family="Arial ItalicMT" font-size="10.00" fill="#999999">string</text>
<text text-anchor="start" x="569" y="-36" font-family="ArialMT" font-size="10.00" fill="#000000">message </text>
<text text-anchor="start" x="612.3545" y="-36" font-family="Arial ItalicMT" font-size="10.00" fill="#999999">string</text>
<text text-anchor="start" x="569" y="-23" font-family="ArialMT" font-size="10.00" fill="#000000">aasm_state </text>
<text text-anchor="start" x="623.4727" y="-23" font-family="Arial ItalicMT" font-size="10.00" fill="#999999">string</text>
<text text-anchor="start" x="569" y="-10" font-family="ArialMT" font-size="10.00" fill="#000000">settings </text>
<text text-anchor="start" x="606.2412" y="-10" font-family="Arial ItalicMT" font-size="10.00" fill="#999999">text</text>
</g>
<!-- m_Cert&#45;&gt;m_Udollar -->
<g id="edge8" class="edge">
<title>m_Cert&#45;&gt;m_Udollar</title>
<path fill="none" stroke="#000000" d="M436.2222,-362.3838C435.7856,-306.5332 441.3044,-226.9304 470,-164 474.3677,-154.4215 480.0082,-145.1437 486.3451,-136.3529"/>
<ellipse fill="none" stroke="#000000" cx="436.2509" cy="-364.9748" rx="2.4" ry="2.4"/>
<ellipse fill="none" stroke="#000000" cx="491.4411" cy="-129.6427" rx="2.4" ry="2.4"/>
<polygon fill="#000000" stroke="#000000" points="488.0332,-137.6023 489.9896,-131.554 484.6884,-135.0621 488.0332,-137.6023"/>
</g>
<!-- m_CertDetail -->
<g id="node3" class="node">
<title>m_CertDetail</title>
<path fill="none" stroke="#000000" d="M442,-872.5C442,-872.5 756,-872.5 756,-872.5 762,-872.5 768,-878.5 768,-884.5 768,-884.5 768,-1338.5 768,-1338.5 768,-1344.5 762,-1350.5 756,-1350.5 756,-1350.5 442,-1350.5 442,-1350.5 436,-1350.5 430,-1344.5 430,-1338.5 430,-1338.5 430,-884.5 430,-884.5 430,-878.5 436,-872.5 442,-872.5"/>
<text text-anchor="start" x="475.5481" y="-1107.7" font-family="Arial BoldMT" font-size="11.00" fill="#000000">CertDetail</text>
<polyline fill="none" stroke="#000000" points="574,-872.5 574,-1350.5 "/>
<text text-anchor="start" x="581" y="-1337.5" font-family="ArialMT" font-size="10.00" fill="#000000">CLAS_SERIAL </text>
<text text-anchor="start" x="650.6631" y="-1337.5" font-family="Arial ItalicMT" font-size="10.00" fill="#999999">integer</text>
<text text-anchor="start" x="581" y="-1324.5" font-family="ArialMT" font-size="10.00" fill="#000000">CLAS_ID </text>
<text text-anchor="start" x="625.4629" y="-1324.5" font-family="Arial ItalicMT" font-size="10.00" fill="#999999">string</text>
<text text-anchor="start" x="581" y="-1311.5" font-family="ArialMT" font-size="10.00" fill="#000000">CLAS_NAME </text>
<text text-anchor="start" x="644.3545" y="-1311.5" font-family="Arial ItalicMT" font-size="10.00" fill="#999999">string</text>
<text text-anchor="start" x="581" y="-1298.5" font-family="ArialMT" font-size="10.00" fill="#000000">CLAS_ENGNAME </text>
<text text-anchor="start" x="666.0244" y="-1298.5" font-family="Arial ItalicMT" font-size="10.00" fill="#999999">string</text>
<text text-anchor="start" x="581" y="-1285.5" font-family="ArialMT" font-size="10.00" fill="#000000">STUD_ID </text>
<text text-anchor="start" x="626.5615" y="-1285.5" font-family="Arial ItalicMT" font-size="10.00" fill="#999999">string</text>
<text text-anchor="start" x="581" y="-1272.5" font-family="ArialMT" font-size="10.00" fill="#000000">STUD_NO </text>
<text text-anchor="start" x="631.5615" y="-1272.5" font-family="Arial ItalicMT" font-size="10.00" fill="#999999">integer</text>
<text text-anchor="start" x="581" y="-1259.5" font-family="ArialMT" font-size="10.00" fill="#000000">STUD_NAME </text>
<text text-anchor="start" x="645.4531" y="-1259.5" font-family="Arial ItalicMT" font-size="10.00" fill="#999999">string</text>
<text text-anchor="start" x="581" y="-1246.5" font-family="ArialMT" font-size="10.00" fill="#000000">STUD_ENGNAME </text>
<text text-anchor="start" x="667.123" y="-1246.5" font-family="Arial ItalicMT" font-size="10.00" fill="#999999">string</text>
<text text-anchor="start" x="581" y="-1233.5" font-family="ArialMT" font-size="10.00" fill="#000000">BIRTH </text>
<text text-anchor="start" x="613.5977" y="-1233.5" font-family="Arial ItalicMT" font-size="10.00" fill="#999999">datetime (0,0)</text>
<text text-anchor="start" x="581" y="-1220.5" font-family="ArialMT" font-size="10.00" fill="#000000">SEX </text>
<text text-anchor="start" x="603.7881" y="-1220.5" font-family="Arial ItalicMT" font-size="10.00" fill="#999999">string</text>
<text text-anchor="start" x="581" y="-1207.5" font-family="ArialMT" font-size="10.00" fill="#000000">ITEM_POINT </text>
<text text-anchor="start" x="643.6025" y="-1207.5" font-family="Arial ItalicMT" font-size="10.00" fill="#999999">decimal (10,0)</text>
<text text-anchor="start" x="581" y="-1194.5" font-family="ArialMT" font-size="10.00" fill="#000000">SCORE </text>
<text text-anchor="start" x="619.3398" y="-1194.5" font-family="Arial ItalicMT" font-size="10.00" fill="#999999">integer</text>
<text text-anchor="start" x="581" y="-1181.5" font-family="ArialMT" font-size="10.00" fill="#000000">ITEM_NO </text>
<text text-anchor="start" x="628.2266" y="-1181.5" font-family="Arial ItalicMT" font-size="10.00" fill="#999999">string</text>
<text text-anchor="start" x="581" y="-1168.5" font-family="ArialMT" font-size="10.00" fill="#000000">ITEM_NAME </text>
<text text-anchor="start" x="642.1182" y="-1168.5" font-family="Arial ItalicMT" font-size="10.00" fill="#999999">string</text>
<text text-anchor="start" x="581" y="-1155.5" font-family="ArialMT" font-size="10.00" fill="#000000">MASTER_NO </text>
<text text-anchor="start" x="646.0098" y="-1155.5" font-family="Arial ItalicMT" font-size="10.00" fill="#999999">string</text>
<text text-anchor="start" x="581" y="-1142.5" font-family="ArialMT" font-size="10.00" fill="#000000">CLS_POINTS </text>
<text text-anchor="start" x="646.0195" y="-1142.5" font-family="Arial ItalicMT" font-size="10.00" fill="#999999">string</text>
<text text-anchor="start" x="581" y="-1129.5" font-family="ArialMT" font-size="10.00" fill="#000000">ENG_NAME </text>
<text text-anchor="start" x="639.9014" y="-1129.5" font-family="Arial ItalicMT" font-size="10.00" fill="#999999">string</text>
<text text-anchor="start" x="581" y="-1116.5" font-family="ArialMT" font-size="10.00" fill="#000000">BUDG_MONTH </text>
<text text-anchor="start" x="654.8916" y="-1116.5" font-family="Arial ItalicMT" font-size="10.00" fill="#999999">integer</text>
<text text-anchor="start" x="581" y="-1103.5" font-family="ArialMT" font-size="10.00" fill="#000000">BUDG_YEAR </text>
<text text-anchor="start" x="645.4629" y="-1103.5" font-family="Arial ItalicMT" font-size="10.00" fill="#999999">integer</text>
<text text-anchor="start" x="580.7925" y="-1090.5" font-family="ArialMT" font-size="10.00" fill="#000000">BUDG_ACTUOPENDATE </text>
<text text-anchor="start" x="699.5132" y="-1090.5" font-family="Arial ItalicMT" font-size="10.00" fill="#999999">datetime (0,0)</text>
<text text-anchor="start" x="581" y="-1077.5" font-family="ArialMT" font-size="10.00" fill="#000000">CLAS_WORD </text>
<text text-anchor="start" x="647.123" y="-1077.5" font-family="Arial ItalicMT" font-size="10.00" fill="#999999">string</text>
<text text-anchor="start" x="581" y="-1064.5" font-family="ArialMT" font-size="10.00" fill="#000000">CLAS_ENDDATE </text>
<text text-anchor="start" x="662.5039" y="-1064.5" font-family="Arial ItalicMT" font-size="10.00" fill="#999999">datetime (0,0)</text>
<text text-anchor="start" x="581" y="-1051.5" font-family="ArialMT" font-size="10.00" fill="#000000">SNO </text>
<text text-anchor="start" x="605.4482" y="-1051.5" font-family="Arial ItalicMT" font-size="10.00" fill="#999999">integer</text>
<text text-anchor="start" x="581" y="-1038.5" font-family="ArialMT" font-size="10.00" fill="#000000">ABS_HOUR </text>
<text text-anchor="start" x="638.793" y="-1038.5" font-family="Arial ItalicMT" font-size="10.00" fill="#999999">integer</text>
<text text-anchor="start" x="581" y="-1025.5" font-family="ArialMT" font-size="10.00" fill="#000000">BUDG_TOTALHOURS </text>
<text text-anchor="start" x="685.6484" y="-1025.5" font-family="Arial ItalicMT" font-size="10.00" fill="#999999">decimal (10,0)</text>
<text text-anchor="start" x="581" y="-1012.5" font-family="ArialMT" font-size="10.00" fill="#000000">BUDG_HOURCOUNT </text>
<text text-anchor="start" x="683.0459" y="-1012.5" font-family="Arial ItalicMT" font-size="10.00" fill="#999999">decimal (10,0)</text>
<text text-anchor="start" x="581" y="-999.5" font-family="ArialMT" font-size="10.00" fill="#000000">GRP_SNO </text>
<text text-anchor="start" x="632.6797" y="-999.5" font-family="Arial ItalicMT" font-size="10.00" fill="#999999">integer</text>
<text text-anchor="start" x="581" y="-986.5" font-family="ArialMT" font-size="10.00" fill="#000000">scls_id </text>
<text text-anchor="start" x="614.3447" y="-986.5" font-family="Arial ItalicMT" font-size="10.00" fill="#999999">string</text>
<text text-anchor="start" x="581" y="-973.5" font-family="ArialMT" font-size="10.00" fill="#000000">MEMO </text>
<text text-anchor="start" x="614.8867" y="-973.5" font-family="Arial ItalicMT" font-size="10.00" fill="#999999">string</text>
<text text-anchor="start" x="581" y="-960.5" font-family="ArialMT" font-size="10.00" fill="#000000">REQUIRED </text>
<text text-anchor="start" x="636.5615" y="-960.5" font-family="Arial ItalicMT" font-size="10.00" fill="#999999">string</text>
<text text-anchor="start" x="581" y="-947.5" font-family="ArialMT" font-size="10.00" fill="#000000">TERM </text>
<text text-anchor="start" x="612.1084" y="-947.5" font-family="Arial ItalicMT" font-size="10.00" fill="#999999">string</text>
<text text-anchor="start" x="581" y="-934.5" font-family="ArialMT" font-size="10.00" fill="#000000">OPEN_DATE </text>
<text text-anchor="start" x="643.6074" y="-934.5" font-family="Arial ItalicMT" font-size="10.00" fill="#999999">datetime (0,0)</text>
<text text-anchor="start" x="581" y="-921.5" font-family="ArialMT" font-size="10.00" fill="#000000">END_DATE </text>
<text text-anchor="start" x="636.3809" y="-921.5" font-family="Arial ItalicMT" font-size="10.00" fill="#999999">datetime (0,0)</text>
<text text-anchor="start" x="581" y="-908.5" font-family="ArialMT" font-size="10.00" fill="#000000">OUT_SNO </text>
<text text-anchor="start" x="632.1182" y="-908.5" font-family="Arial ItalicMT" font-size="10.00" fill="#999999">string</text>
<text text-anchor="start" x="581" y="-895.5" font-family="ArialMT" font-size="10.00" fill="#000000">GRAD_SIGN </text>
<text text-anchor="start" x="642.6797" y="-895.5" font-family="Arial ItalicMT" font-size="10.00" fill="#999999">string</text>
<text text-anchor="start" x="581" y="-882.5" font-family="ArialMT" font-size="10.00" fill="#000000">settings </text>
<text text-anchor="start" x="618.2412" y="-882.5" font-family="Arial ItalicMT" font-size="10.00" fill="#999999">text</text>
</g>
<!-- m_Course -->
<g id="node4" class="node">
<title>m_Course</title>
<path fill="none" stroke="#000000" d="M467,-676C467,-676 731,-676 731,-676 737,-676 743,-682 743,-688 743,-688 743,-791 743,-791 743,-797 737,-803 731,-803 731,-803 467,-803 467,-803 461,-803 455,-797 455,-791 455,-791 455,-688 455,-688 455,-682 461,-676 467,-676"/>
<text text-anchor="start" x="507.27" y="-735.7" font-family="Arial BoldMT" font-size="11.00" fill="#000000">Course</text>
<polyline fill="none" stroke="#000000" points="599,-676 599,-803 "/>
<text text-anchor="start" x="606" y="-789.5" font-family="ArialMT" font-size="10.00" fill="#000000">cert_detail_id </text>
<text text-anchor="start" x="668.2607" y="-789.5" font-family="Arial ItalicMT" font-size="10.00" fill="#999999">integer (8) FK</text>
<text text-anchor="start" x="606" y="-776.5" font-family="ArialMT" font-size="10.00" fill="#000000">title </text>
<text text-anchor="start" x="624.3398" y="-776.5" font-family="Arial ItalicMT" font-size="10.00" fill="#999999">string</text>
<text text-anchor="start" x="606" y="-763.5" font-family="ArialMT" font-size="10.00" fill="#000000">has_cert </text>
<text text-anchor="start" x="647.1328" y="-763.5" font-family="Arial ItalicMT" font-size="10.00" fill="#999999">boolean (0)</text>
<text text-anchor="start" x="606" y="-750.5" font-family="ArialMT" font-size="10.00" fill="#000000">hours </text>
<text text-anchor="start" x="633.793" y="-750.5" font-family="Arial ItalicMT" font-size="10.00" fill="#999999">integer</text>
<text text-anchor="start" x="606" y="-737.5" font-family="ArialMT" font-size="10.00" fill="#000000">percentage </text>
<text text-anchor="start" x="658.8174" y="-737.5" font-family="Arial ItalicMT" font-size="10.00" fill="#999999">integer</text>
<text text-anchor="start" x="606" y="-724.5" font-family="ArialMT" font-size="10.00" fill="#000000">start_date </text>
<text text-anchor="start" x="653.251" y="-724.5" font-family="Arial ItalicMT" font-size="10.00" fill="#999999">datetime (0,0)</text>
<text text-anchor="start" x="606" y="-711.5" font-family="ArialMT" font-size="10.00" fill="#000000">end_date </text>
<text text-anchor="start" x="650.4873" y="-711.5" font-family="Arial ItalicMT" font-size="10.00" fill="#999999">datetime (0,0)</text>
<text text-anchor="start" x="606" y="-698.5" font-family="ArialMT" font-size="10.00" fill="#000000">aasm_state </text>
<text text-anchor="start" x="660.4727" y="-698.5" font-family="Arial ItalicMT" font-size="10.00" fill="#999999">string</text>
<text text-anchor="start" x="606" y="-685.5" font-family="ArialMT" font-size="10.00" fill="#000000">settings </text>
<text text-anchor="start" x="643.2412" y="-685.5" font-family="Arial ItalicMT" font-size="10.00" fill="#999999">text</text>
</g>
<!-- m_CertDetail&#45;&gt;m_Course -->
<g id="edge10" class="edge">
<title>m_CertDetail&#45;&gt;m_Course</title>
<path fill="none" stroke="#000000" d="M599,-867.4972C599,-848.5722 599,-830.5374 599,-814.2913"/>
<ellipse fill="none" stroke="#000000" cx="599" cy="-870.0874" rx="2.4" ry="2.4"/>
<ellipse fill="#000000" stroke="#000000" cx="599" cy="-805.7408" rx="2.4" ry="2.4"/>
<polygon fill="#000000" stroke="#000000" points="601.1001,-814.1408 599,-808.1408 596.9001,-814.1409 601.1001,-814.1408"/>
</g>
<!-- m_Course&#45;&gt;m_Cert -->
<g id="edge12" class="edge">
<title>m_Course&#45;&gt;m_Cert</title>
<path fill="none" stroke="#000000" stroke-dasharray="1,5" d="M505.6896,-673.4198C485.1814,-661.5366 462.9972,-650.5472 441,-643 373.7311,-619.9203 170.3753,-660.0411 123,-607 100.4989,-581.8079 103.0288,-558.2413 123,-531 142.2705,-504.7144 206.2524,-482.1561 271.7371,-465.1534"/>
<ellipse fill="none" stroke="#000000" cx="507.9689" cy="-674.755" rx="2.4" ry="2.4"/>
<ellipse fill="none" stroke="#000000" cx="279.9276" cy="-463.0655" rx="2.4" ry="2.4"/>
<polygon fill="#000000" stroke="#000000" points="272.3067,-467.1754 277.602,-463.6583 271.2692,-463.1056 272.3067,-467.1754"/>
</g>
<!-- m_CourseSubject -->
<g id="node5" class="node">
<title>m_CourseSubject</title>
<path fill="none" stroke="#000000" d="M843,-538C843,-538 1107,-538 1107,-538 1113,-538 1119,-544 1119,-550 1119,-550 1119,-588 1119,-588 1119,-594 1113,-600 1107,-600 1107,-600 843,-600 843,-600 837,-600 831,-594 831,-588 831,-588 831,-550 831,-550 831,-544 837,-538 843,-538"/>
<text text-anchor="start" x="864.925" y="-565.2" font-family="Arial BoldMT" font-size="11.00" fill="#000000">CourseSubject</text>
<polyline fill="none" stroke="#000000" points="975,-538 975,-600 "/>
<text text-anchor="start" x="982" y="-587" font-family="ArialMT" font-size="10.00" fill="#000000">course_id </text>
<text text-anchor="start" x="1028.1377" y="-587" font-family="Arial ItalicMT" font-size="10.00" fill="#999999">integer (8) ∗ FK</text>
<text text-anchor="start" x="982" y="-574" font-family="ArialMT" font-size="10.00" fill="#000000">subject_id </text>
<text text-anchor="start" x="1029.8076" y="-574" font-family="Arial ItalicMT" font-size="10.00" fill="#999999">integer (8) ∗ FK</text>
<text text-anchor="start" x="982" y="-561" font-family="ArialMT" font-size="10.00" fill="#000000">credits </text>
<text text-anchor="start" x="1014.2314" y="-561" font-family="Arial ItalicMT" font-size="10.00" fill="#999999">integer</text>
<text text-anchor="start" x="982" y="-548" font-family="ArialMT" font-size="10.00" fill="#000000">settings </text>
<text text-anchor="start" x="1019.2412" y="-548" font-family="Arial ItalicMT" font-size="10.00" fill="#999999">text</text>
</g>
<!-- m_Course&#45;&gt;m_CourseSubject -->
<g id="edge14" class="edge">
<title>m_Course&#45;&gt;m_CourseSubject</title>
<path fill="none" stroke="#000000" d="M700.6309,-673.38C719.3274,-662.5036 738.9614,-651.8949 758,-643 789.727,-628.177 825.2761,-614.8025 858.2731,-603.6315"/>
<ellipse fill="none" stroke="#000000" cx="698.4772" cy="-674.6398" rx="2.4" ry="2.4"/>
<ellipse fill="#000000" stroke="#000000" cx="866.6124" cy="-600.8438" rx="2.4" ry="2.4"/>
<polygon fill="#000000" stroke="#000000" points="859.3115,-605.4986 864.3362,-601.6047 857.98,-601.5153 859.3115,-605.4986"/>
</g>
<!-- m_CourseTemplate -->
<g id="node6" class="node">
<title>m_CourseTemplate</title>
<path fill="none" stroke="#000000" d="M150,-531.5C150,-531.5 414,-531.5 414,-531.5 420,-531.5 426,-537.5 426,-543.5 426,-543.5 426,-594.5 426,-594.5 426,-600.5 420,-606.5 414,-606.5 414,-606.5 150,-606.5 150,-606.5 144,-606.5 138,-600.5 138,-594.5 138,-594.5 138,-543.5 138,-543.5 138,-537.5 144,-531.5 150,-531.5"/>
<text text-anchor="start" x="167.9531" y="-565.2" font-family="Arial BoldMT" font-size="11.00" fill="#000000">CourseTemplate</text>
<polyline fill="none" stroke="#000000" points="282,-531.5 282,-606.5 "/>
<text text-anchor="start" x="289" y="-593" font-family="ArialMT" font-size="10.00" fill="#000000">course_id </text>
<text text-anchor="start" x="335.1377" y="-593" font-family="Arial ItalicMT" font-size="10.00" fill="#999999">integer (8) FK</text>
<text text-anchor="start" x="289" y="-580" font-family="ArialMT" font-size="10.00" fill="#000000">template_id </text>
<text text-anchor="start" x="343.4775" y="-580" font-family="Arial ItalicMT" font-size="10.00" fill="#999999">integer (8) FK</text>
<text text-anchor="start" x="289" y="-567" font-family="ArialMT" font-size="10.00" fill="#000000">expired_date </text>
<text text-anchor="start" x="349.6006" y="-567" font-family="Arial ItalicMT" font-size="10.00" fill="#999999">datetime (0,0)</text>
<text text-anchor="start" x="289" y="-554" font-family="ArialMT" font-size="10.00" fill="#000000">settings </text>
<text text-anchor="start" x="326.2412" y="-554" font-family="Arial ItalicMT" font-size="10.00" fill="#999999">text (16777215)</text>
<text text-anchor="start" x="289" y="-541" font-family="ArialMT" font-size="10.00" fill="#000000">include_scores </text>
<text text-anchor="start" x="358.4824" y="-541" font-family="Arial ItalicMT" font-size="10.00" fill="#999999">boolean (0)</text>
</g>
<!-- m_Course&#45;&gt;m_CourseTemplate -->
<g id="edge13" class="edge">
<title>m_Course&#45;&gt;m_CourseTemplate</title>
<path fill="none" stroke="#000000" d="M493.9798,-673.1015C476.4784,-662.6908 458.368,-652.3073 441,-643 420.7283,-632.1366 398.5763,-621.2413 377.4187,-611.2788"/>
<ellipse fill="none" stroke="#000000" cx="496.3544" cy="-674.5184" rx="2.4" ry="2.4"/>
<ellipse fill="#000000" stroke="#000000" cx="369.6268" cy="-607.6359" rx="2.4" ry="2.4"/>
<polygon fill="#000000" stroke="#000000" points="378.1256,-609.2912 371.8009,-608.6524 376.3468,-613.0959 378.1256,-609.2912"/>
</g>
<!-- m_CourseUser -->
<g id="node7" class="node">
<title>m_CourseUser</title>
<path fill="none" stroke="#000000" d="M467,-544.5C467,-544.5 731,-544.5 731,-544.5 737,-544.5 743,-550.5 743,-556.5 743,-556.5 743,-581.5 743,-581.5 743,-587.5 737,-593.5 731,-593.5 731,-593.5 467,-593.5 467,-593.5 461,-593.5 455,-587.5 455,-581.5 455,-581.5 455,-556.5 455,-556.5 455,-550.5 461,-544.5 467,-544.5"/>
<text text-anchor="start" x="495.6577" y="-565.2" font-family="Arial BoldMT" font-size="11.00" fill="#000000">CourseUser</text>
<polyline fill="none" stroke="#000000" points="599,-544.5 599,-593.5 "/>
<text text-anchor="start" x="606" y="-580" font-family="ArialMT" font-size="10.00" fill="#000000">course_id </text>
<text text-anchor="start" x="652.1377" y="-580" font-family="Arial ItalicMT" font-size="10.00" fill="#999999">integer (8) ∗ FK</text>
<text text-anchor="start" x="606" y="-567" font-family="ArialMT" font-size="10.00" fill="#000000">user_id </text>
<text text-anchor="start" x="641.5762" y="-567" font-family="Arial ItalicMT" font-size="10.00" fill="#999999">integer (8) ∗ FK</text>
<text text-anchor="start" x="606" y="-554" font-family="ArialMT" font-size="10.00" fill="#000000">settings </text>
<text text-anchor="start" x="643.2412" y="-554" font-family="Arial ItalicMT" font-size="10.00" fill="#999999">text</text>
</g>
<!-- m_Course&#45;&gt;m_CourseUser -->
<g id="edge11" class="edge">
<title>m_Course&#45;&gt;m_CourseUser</title>
<path fill="none" stroke="#000000" d="M599,-670.4786C599,-647.852 599,-623.6416 599,-604.545"/>
<ellipse fill="none" stroke="#000000" cx="599" cy="-673.127" rx="2.4" ry="2.4"/>
<ellipse fill="#000000" stroke="#000000" cx="599" cy="-596.0598" rx="2.4" ry="2.4"/>
<polygon fill="#000000" stroke="#000000" points="601.1001,-604.4598 599,-598.4598 596.9001,-604.4598 601.1001,-604.4598"/>
</g>
<!-- m_CourseUserSubject -->
<g id="node8" class="node">
<title>m_CourseUserSubject</title>
<path fill="none" stroke="#000000" d="M736,-400C736,-400 1020,-400 1020,-400 1026,-400 1032,-406 1032,-412 1032,-412 1032,-450 1032,-450 1032,-456 1026,-462 1020,-462 1020,-462 736,-462 736,-462 730,-462 724,-456 724,-450 724,-450 724,-412 724,-412 724,-406 730,-400 736,-400"/>
<text text-anchor="start" x="746.3127" y="-427.2" font-family="Arial BoldMT" font-size="11.00" fill="#000000">CourseUserSubject</text>
<polyline fill="none" stroke="#000000" points="868,-400 868,-462 "/>
<text text-anchor="start" x="875" y="-449" font-family="ArialMT" font-size="10.00" fill="#000000">course_user_id </text>
<text text-anchor="start" x="946.1523" y="-449" font-family="Arial ItalicMT" font-size="10.00" fill="#999999">integer (8) ∗ FK</text>
<text text-anchor="start" x="874.7754" y="-436" font-family="ArialMT" font-size="10.00" fill="#000000">course_subject_id </text>
<text text-anchor="start" x="958.1592" y="-436" font-family="Arial ItalicMT" font-size="10.00" fill="#999999">integer (8) ∗ FK</text>
<text text-anchor="start" x="875" y="-423" font-family="ArialMT" font-size="10.00" fill="#000000">score </text>
<text text-anchor="start" x="902.2314" y="-423" font-family="Arial ItalicMT" font-size="10.00" fill="#999999">integer</text>
<text text-anchor="start" x="875" y="-410" font-family="ArialMT" font-size="10.00" fill="#000000">settings </text>
<text text-anchor="start" x="912.2412" y="-410" font-family="Arial ItalicMT" font-size="10.00" fill="#999999">text</text>
</g>
<!-- m_CourseSubject&#45;&gt;m_CourseUserSubject -->
<g id="edge16" class="edge">
<title>m_CourseSubject&#45;&gt;m_CourseUserSubject</title>
<path fill="none" stroke="#000000" d="M950.1447,-533.6388C936.7538,-514.5878 920.1791,-491.0074 906.2946,-471.2542"/>
<ellipse fill="none" stroke="#000000" cx="951.6091" cy="-535.7222" rx="2.4" ry="2.4"/>
<ellipse fill="none" stroke="#000000" cx="901.3038" cy="-464.1539" rx="2.4" ry="2.4"/>
<polygon fill="#000000" stroke="#000000" points="907.8524,-469.8185 902.684,-466.1174 904.4163,-472.2337 907.8524,-469.8185"/>
</g>
<!-- m_CourseTemplate&#45;&gt;m_Cert -->
<g id="edge6" class="edge">
<title>m_CourseTemplate&#45;&gt;m_Cert</title>
<path fill="none" stroke="#000000" d="M328.8648,-528.0675C338.35,-519.783 348.5801,-510.8477 358.8587,-501.8702"/>
<ellipse fill="none" stroke="#000000" cx="326.9818" cy="-529.7121" rx="2.4" ry="2.4"/>
<ellipse fill="#000000" stroke="#000000" cx="365.2914" cy="-496.2518" rx="2.4" ry="2.4"/>
<polygon fill="#000000" stroke="#000000" points="360.3462,-503.3593 363.4838,-497.8306 357.5833,-500.196 360.3462,-503.3593"/>
</g>
<!-- m_CourseUser&#45;&gt;m_Cert -->
<g id="edge7" class="edge">
<title>m_CourseUser&#45;&gt;m_Cert</title>
<path fill="none" stroke="#000000" d="M566.7197,-540.9831C553.5306,-529.536 537.622,-515.7286 521.5997,-501.8224"/>
<ellipse fill="none" stroke="#000000" cx="568.7614" cy="-542.7552" rx="2.4" ry="2.4"/>
<ellipse fill="#000000" stroke="#000000" cx="515.037" cy="-496.1265" rx="2.4" ry="2.4"/>
<polygon fill="#000000" stroke="#000000" points="522.7574,-500.0465 516.8496,-497.6996 520.0044,-503.2185 522.7574,-500.0465"/>
</g>
<!-- m_CourseUser&#45;&gt;m_CourseUserSubject -->
<g id="edge19" class="edge">
<title>m_CourseUser&#45;&gt;m_CourseUserSubject</title>
<path fill="none" stroke="#000000" d="M652.985,-542.2978C696.3232,-520.8616 757.5897,-490.5578 805.2527,-466.9825"/>
<ellipse fill="none" stroke="#000000" cx="650.7094" cy="-543.4233" rx="2.4" ry="2.4"/>
<ellipse fill="none" stroke="#000000" cx="813.0544" cy="-463.1236" rx="2.4" ry="2.4"/>
<polygon fill="#000000" stroke="#000000" points="806.4561,-468.7302 810.9031,-464.1877 804.594,-464.9655 806.4561,-468.7302"/>
</g>
<!-- m_Paper&#45;&gt;m_Udollar -->
<g id="edge4" class="edge">
<title>m_Paper&#45;&gt;m_Udollar</title>
<path fill="none" stroke="#000000" d="M596.4241,-159.7095C593.8094,-152.4398 591.1828,-145.1369 588.61,-137.9838"/>
<ellipse fill="none" stroke="#000000" cx="597.2774" cy="-162.082" rx="2.4" ry="2.4"/>
<ellipse fill="none" stroke="#000000" cx="585.6991" cy="-129.8906" rx="2.4" ry="2.4"/>
<polygon fill="#000000" stroke="#000000" points="590.5182,-137.0841 586.5114,-132.149 586.566,-138.5056 590.5182,-137.0841"/>
</g>
<!-- m_Subject -->
<g id="node12" class="node">
<title>m_Subject</title>
<path fill="none" stroke="#000000" d="M1145,-715C1145,-715 1409,-715 1409,-715 1415,-715 1421,-721 1421,-727 1421,-727 1421,-752 1421,-752 1421,-758 1415,-764 1409,-764 1409,-764 1145,-764 1145,-764 1139,-764 1133,-758 1133,-752 1133,-752 1133,-727 1133,-727 1133,-721 1139,-715 1145,-715"/>
<text text-anchor="start" x="1184.655" y="-735.7" font-family="Arial BoldMT" font-size="11.00" fill="#000000">Subject</text>
<polyline fill="none" stroke="#000000" points="1277,-715 1277,-764 "/>
<text text-anchor="start" x="1284" y="-750.5" font-family="ArialMT" font-size="10.00" fill="#000000">user_id </text>
<text text-anchor="start" x="1319.5762" y="-750.5" font-family="Arial ItalicMT" font-size="10.00" fill="#999999">integer (8)</text>
<text text-anchor="start" x="1284" y="-737.5" font-family="ArialMT" font-size="10.00" fill="#000000">title </text>
<text text-anchor="start" x="1302.3398" y="-737.5" font-family="Arial ItalicMT" font-size="10.00" fill="#999999">string</text>
<text text-anchor="start" x="1284" y="-724.5" font-family="ArialMT" font-size="10.00" fill="#000000">settings </text>
<text text-anchor="start" x="1321.2412" y="-724.5" font-family="Arial ItalicMT" font-size="10.00" fill="#999999">text</text>
</g>
<!-- m_Subject&#45;&gt;m_CourseSubject -->
<g id="edge15" class="edge">
<title>m_Subject&#45;&gt;m_CourseSubject</title>
<path fill="none" stroke="#000000" d="M1234.0362,-712.3364C1202.3057,-692.5428 1157.8823,-665.3878 1118,-643 1095.1783,-630.1891 1069.9228,-616.851 1047.066,-605.0847"/>
<ellipse fill="none" stroke="#000000" cx="1236.1962" cy="-713.6855" rx="2.4" ry="2.4"/>
<ellipse fill="#000000" stroke="#000000" cx="1039.5669" cy="-601.2395" rx="2.4" ry="2.4"/>
<polygon fill="#000000" stroke="#000000" points="1047.9997,-603.2035 1041.7025,-602.3345 1046.0834,-606.9409 1047.9997,-603.2035"/>
</g>
<!-- m_Template -->
<g id="node13" class="node">
<title>m_Template</title>
<path fill="none" stroke="#000000" d="M150,-708.5C150,-708.5 414,-708.5 414,-708.5 420,-708.5 426,-714.5 426,-720.5 426,-720.5 426,-758.5 426,-758.5 426,-764.5 420,-770.5 414,-770.5 414,-770.5 150,-770.5 150,-770.5 144,-770.5 138,-764.5 138,-758.5 138,-758.5 138,-720.5 138,-720.5 138,-714.5 144,-708.5 150,-708.5"/>
<text text-anchor="start" x="185.6831" y="-735.7" font-family="Arial BoldMT" font-size="11.00" fill="#000000">Template</text>
<polyline fill="none" stroke="#000000" points="282,-708.5 282,-770.5 "/>
<text text-anchor="start" x="289" y="-757.5" font-family="ArialMT" font-size="10.00" fill="#000000">user_id </text>
<text text-anchor="start" x="324.5762" y="-757.5" font-family="Arial ItalicMT" font-size="10.00" fill="#999999">integer (8)</text>
<text text-anchor="start" x="289" y="-744.5" font-family="ArialMT" font-size="10.00" fill="#000000">title </text>
<text text-anchor="start" x="307.3398" y="-744.5" font-family="Arial ItalicMT" font-size="10.00" fill="#999999">string</text>
<text text-anchor="start" x="289" y="-731.5" font-family="ArialMT" font-size="10.00" fill="#000000">data </text>
<text text-anchor="start" x="311.2412" y="-731.5" font-family="Arial ItalicMT" font-size="10.00" fill="#999999">text</text>
<text text-anchor="start" x="289" y="-718.5" font-family="ArialMT" font-size="10.00" fill="#000000">settings </text>
<text text-anchor="start" x="326.2412" y="-718.5" font-family="Arial ItalicMT" font-size="10.00" fill="#999999">text</text>
</g>
<!-- m_Template&#45;&gt;m_Cert -->
<g id="edge20" class="edge">
<title>m_Template&#45;&gt;m_Cert</title>
<path fill="none" stroke="#000000" stroke-dasharray="1,5" d="M326.0898,-705.535C356.6358,-683.8799 399.1831,-657.29 441,-643 508.0882,-620.0742 710.7811,-659.8848 758,-607 780.4966,-581.804 777.9835,-558.2323 758,-531 738.6217,-504.5923 674.208,-481.9868 608.3737,-464.9839"/>
<ellipse fill="none" stroke="#000000" cx="324.0023" cy="-707.0256" rx="2.4" ry="2.4"/>
<ellipse fill="none" stroke="#000000" cx="600.1286" cy="-462.8934" rx="2.4" ry="2.4"/>
<polygon fill="#000000" stroke="#000000" points="608.7871,-462.9224 602.455,-463.4832 607.7548,-466.9935 608.7871,-462.9224"/>
</g>
<!-- m_Template&#45;&gt;m_CourseTemplate -->
<g id="edge17" class="edge">
<title>m_Template&#45;&gt;m_CourseTemplate</title>
<path fill="none" stroke="#000000" d="M282,-703.4078C282,-678.4138 282,-644.8563 282,-617.5251"/>
<ellipse fill="none" stroke="#000000" cx="282" cy="-705.8277" rx="2.4" ry="2.4"/>
<ellipse fill="#000000" stroke="#000000" cx="282" cy="-609.0214" rx="2.4" ry="2.4"/>
<polygon fill="#000000" stroke="#000000" points="284.1001,-617.4214 282,-611.4214 279.9001,-617.4214 284.1001,-617.4214"/>
</g>
<!-- m_User -->
<g id="node15" class="node">
<title>m_User</title>
<path fill="none" stroke="#000000" d="M784.5,-643.5C784.5,-643.5 1091.5,-643.5 1091.5,-643.5 1097.5,-643.5 1103.5,-649.5 1103.5,-655.5 1103.5,-655.5 1103.5,-823.5 1103.5,-823.5 1103.5,-829.5 1097.5,-835.5 1091.5,-835.5 1091.5,-835.5 784.5,-835.5 784.5,-835.5 778.5,-835.5 772.5,-829.5 772.5,-823.5 772.5,-823.5 772.5,-655.5 772.5,-655.5 772.5,-649.5 778.5,-643.5 784.5,-643.5"/>
<text text-anchor="start" x="830.8877" y="-735.7" font-family="Arial BoldMT" font-size="11.00" fill="#000000">User</text>
<polyline fill="none" stroke="#000000" points="916.5,-643.5 916.5,-835.5 "/>
<text text-anchor="start" x="924" y="-822.5" font-family="ArialMT" font-size="10.00" fill="#000000">token </text>
<text text-anchor="start" x="951.2412" y="-822.5" font-family="Arial ItalicMT" font-size="10.00" fill="#999999">string</text>
<text text-anchor="start" x="924" y="-809.5" font-family="ArialMT" font-size="10.00" fill="#000000">name </text>
<text text-anchor="start" x="951.793" y="-809.5" font-family="Arial ItalicMT" font-size="10.00" fill="#999999">string</text>
<text text-anchor="start" x="924" y="-796.5" font-family="ArialMT" font-size="10.00" fill="#000000">email </text>
<text text-anchor="start" x="950.6748" y="-796.5" font-family="Arial ItalicMT" font-size="10.00" fill="#999999">string ∗ U</text>
<text text-anchor="start" x="924" y="-783.5" font-family="ArialMT" font-size="10.00" fill="#000000">encrypted_password </text>
<text text-anchor="start" x="1019.0537" y="-783.5" font-family="Arial ItalicMT" font-size="10.00" fill="#999999">string ∗</text>
<text text-anchor="start" x="924" y="-770.5" font-family="ArialMT" font-size="10.00" fill="#000000">reset_password_token </text>
<text text-anchor="start" x="1027.3936" y="-770.5" font-family="Arial ItalicMT" font-size="10.00" fill="#999999">string</text>
<text text-anchor="start" x="923.7861" y="-757.5" font-family="ArialMT" font-size="10.00" fill="#000000">reset_password_sent_at </text>
<text text-anchor="start" x="1035.5195" y="-757.5" font-family="Arial ItalicMT" font-size="10.00" fill="#999999">datetime (0,0)</text>
<text text-anchor="start" x="924" y="-744.5" font-family="ArialMT" font-size="10.00" fill="#000000">remember_created_at </text>
<text text-anchor="start" x="1025.1621" y="-744.5" font-family="Arial ItalicMT" font-size="10.00" fill="#999999">datetime (0,0)</text>
<text text-anchor="start" x="924" y="-731.5" font-family="ArialMT" font-size="10.00" fill="#000000">sign_in_count </text>
<text text-anchor="start" x="988.4922" y="-731.5" font-family="Arial ItalicMT" font-size="10.00" fill="#999999">integer ∗</text>
<text text-anchor="start" x="924" y="-718.5" font-family="ArialMT" font-size="10.00" fill="#000000">current_sign_in_at </text>
<text text-anchor="start" x="1009.0537" y="-718.5" font-family="Arial ItalicMT" font-size="10.00" fill="#999999">datetime (0,0)</text>
<text text-anchor="start" x="924" y="-705.5" font-family="ArialMT" font-size="10.00" fill="#000000">last_sign_in_at </text>
<text text-anchor="start" x="993.4922" y="-705.5" font-family="Arial ItalicMT" font-size="10.00" fill="#999999">datetime (0,0)</text>
<text text-anchor="start" x="924" y="-692.5" font-family="ArialMT" font-size="10.00" fill="#000000">current_sign_in_ip </text>
<text text-anchor="start" x="1008.4971" y="-692.5" font-family="Arial ItalicMT" font-size="10.00" fill="#999999">string</text>
<text text-anchor="start" x="924" y="-679.5" font-family="ArialMT" font-size="10.00" fill="#000000">last_sign_in_ip </text>
<text text-anchor="start" x="992.9355" y="-679.5" font-family="Arial ItalicMT" font-size="10.00" fill="#999999">string</text>
<text text-anchor="start" x="924" y="-666.5" font-family="ArialMT" font-size="10.00" fill="#000000">aasm_state </text>
<text text-anchor="start" x="978.4727" y="-666.5" font-family="Arial ItalicMT" font-size="10.00" fill="#999999">string</text>
<text text-anchor="start" x="924" y="-653.5" font-family="ArialMT" font-size="10.00" fill="#000000">settings </text>
<text text-anchor="start" x="961.2412" y="-653.5" font-family="Arial ItalicMT" font-size="10.00" fill="#999999">text</text>
</g>
<!-- m_User&#45;&gt;m_CourseUser -->
<g id="edge18" class="edge">
<title>m_User&#45;&gt;m_CourseUser</title>
<path fill="none" stroke="#000000" d="M767.8888,-647.9776C764.569,-646.2967 761.2702,-644.6359 758,-643 727.3087,-627.6464 692.8216,-611.468 663.8304,-598.1673"/>
<ellipse fill="none" stroke="#000000" cx="770.2881" cy="-649.1954" rx="2.4" ry="2.4"/>
<ellipse fill="#000000" stroke="#000000" cx="656.0028" cy="-594.5871" rx="2.4" ry="2.4"/>
<polygon fill="#000000" stroke="#000000" points="664.5152,-596.1713 658.1853,-595.5853 662.7682,-599.9908 664.5152,-596.1713"/>
</g>
</g>
</svg>
